<?xml version="1.0" encoding="UTF-8" standalone="no"?>
<svg width="72px" height="72px" viewBox="0 0 72 72" version="1.1" xmlns="http://www.w3.org/2000/svg" xmlns:xlink="http://www.w3.org/1999/xlink">
    <!-- Generator: Sketch 42 (36781) - http://www.bohemiancoding.com/sketch -->
    <title>ghs-pictogram-health-hazard</title>
    <desc>Created with Sketch.</desc>
    <defs></defs>
    <g id="Style-Guide-und-Materialien" stroke="none" stroke-width="1" fill="none" fill-rule="evenodd">
        <g id="Materialien" transform="translate(-302.000000, -175.000000)">
            <g id="GHS-Pictograms" transform="translate(118.000000, 83.000000)">
                <g id="Pictogram/GHS/HealthHazard" transform="translate(184.000000, 92.000000)">
                    <g id="GHS-pictogram-silhouette">
                        <polygon id="Shape" fill="#FF0000" fill-rule="nonzero" points="36 71.9440622 71.9440622 36 36 0.0559378468 0.0559378468 36"></polygon>
                        <polygon id="Shape" fill="#FFFFFF" fill-rule="nonzero" points="36 66.2463929 5.7536071 36 36 5.74561598 66.2463929 36"></polygon>
                        <path d="M36.1678135,12.8736959 C31.9325194,12.8736959 28.4963374,16.5735849 28.4963374,21.136515 C28.4963374,24.1012209 29.605505,28.2645949 31.7679023,30.8137625 L31.5033962,33.519556 L25.7018424,35.6212209 C25.7945394,36.0743174 26.1956937,36.4147392 26.6751609,36.4147392 C26.7598668,36.4147392 26.8421754,36.4027525 26.9204883,36.3827747 C27.0307658,36.8110988 27.4183352,37.1267481 27.8794229,37.1267481 C27.9281687,37.1267481 27.9761154,37.1227525 28.023263,37.1155605 C28.136737,37.5390899 28.521909,37.8515427 28.9821976,37.8515427 C29.1172475,37.8515427 29.2459046,37.8243729 29.363374,37.7756271 C29.3945394,38.0936737 29.6638402,38.3429967 29.990677,38.3429967 C30.054606,38.3429967 30.1169367,38.3334073 30.1752719,38.3150277 C30.2551831,38.7825083 30.6627303,39.1389123 31.1533851,39.1389123 C31.5353607,39.1389123 31.8669922,38.9231521 32.0324084,38.6075028 C32.1994229,38.7345616 32.407192,38.8104772 32.6325416,38.8104772 C32.7787791,38.8104772 32.9178246,38.7777137 33.0424861,38.7209767 C33.1719423,38.9958713 33.412475,39.207636 33.7049501,39.2987347 C33.6937625,39.3346948 33.6849723,39.3730522 33.6849723,39.4130078 C33.6849723,39.6151831 33.8487902,39.778202 34.0501665,39.778202 C34.2515427,39.778202 34.4153607,39.6151831 34.4153607,39.4130078 C34.4153607,39.3682575 34.4065705,39.3259046 34.3913873,39.2859489 C34.8173141,39.136515 35.123374,38.7321643 35.123374,38.2550943 C35.123374,38.0369367 35.0586459,37.8339623 34.9483685,37.6637514 C35.1273696,37.639778 35.2648169,37.4887458 35.2648169,37.3033518 C35.2648169,37.1459267 35.1649279,37.012475 35.0250832,36.962131 C35.1769145,36.7871254 35.2704107,36.5625749 35.2704107,36.3092564 C35.2704107,36.2621088 35.265616,36.2149612 35.2592231,36.1694118 C35.6340067,36.0271698 35.8985128,35.665172 35.8985128,35.2408435 C35.8985128,34.9755383 35.79303,34.7358047 35.6236182,34.5576027 C35.6547836,34.5663929 35.6867481,34.5727858 35.7203108,34.5727858 C35.921687,34.5727858 36.0847059,34.4089678 36.0847059,34.2075916 C36.0847059,34.0054162 35.921687,33.8423973 35.7203108,33.8423973 C35.6403996,33.8423973 35.5668812,33.868768 35.5061487,33.9127192 C35.4334295,33.7768701 35.301576,33.6785794 35.1449501,33.6530078 C35.2680133,33.4516315 35.3399334,33.2166926 35.3399334,32.963374 C35.3399334,32.799556 35.308768,32.6437292 35.2544284,32.4982908 C35.6308102,32.3576471 35.9017092,31.9948502 35.9017092,31.5697225 C35.9017092,31.3211987 35.8106104,31.0950499 35.6619756,30.9208435 C35.9376693,30.8297447 36.1366482,30.5700333 36.1366482,30.2631743 C36.1366482,30.0114539 36.0015982,29.7916981 35.8010211,29.6702331 C35.8953163,29.5519645 35.9512542,29.4033296 35.9512542,29.2403108 C35.9512542,29.1987569 35.9472586,29.1580022 35.9400666,29.1188457 C36.0839068,29.1116537 36.2165594,29.0629079 36.3252386,28.9813984 C36.3164484,29.0245505 36.3124528,29.0677026 36.3124528,29.1124528 C36.3124528,29.3585794 36.4403108,29.5743396 36.6320977,29.6974029 C36.5937403,29.8028857 36.5721643,29.9163596 36.5721643,30.0346282 C36.5721643,30.439778 36.8118979,30.7865927 37.1603108,30.9416204 C37.1283463,31.0550943 37.1099667,31.1749612 37.1099667,31.2980244 C37.1099667,31.7183574 37.3081465,32.0923418 37.6158047,32.3320755 C37.3465039,32.449545 37.1579134,32.7180466 37.1579134,33.0304994 C37.1579134,33.3429523 37.3457048,33.6106548 37.6142064,33.7289234 C37.5606659,33.8216204 37.5295006,33.9295006 37.5295006,34.0445727 C37.5295006,34.2970921 37.6773363,34.5136515 37.8914983,34.6143396 C37.8299667,34.76697 37.7956049,34.9331853 37.7956049,35.1073918 C37.7956049,35.3167592 37.8459489,35.514939 37.9338513,35.6907436 C37.8914983,35.7386903 37.8539401,35.7882353 37.81798,35.8417758 C37.7516537,35.7746504 37.6597558,35.7330966 37.5582686,35.7330966 C37.3568923,35.7330966 37.1930744,35.8961154 37.1930744,36.0982908 C37.1930744,36.299667 37.3568923,36.4626859 37.5582686,36.4626859 C37.5758491,36.4626859 37.5918313,36.4602886 37.6086127,36.4578912 C37.6062153,36.4914539 37.603818,36.5250166 37.603818,36.5593785 C37.603818,36.812697 37.6765372,37.047636 37.8003996,37.2482131 C37.6941176,37.4495893 37.6333851,37.6789345 37.6333851,37.9226637 C37.6333851,38.2966482 37.7756271,38.6354717 38.0065705,38.8927858 C37.9426415,38.9966704 37.9050832,39.1181354 37.9050832,39.2491898 C37.9050832,39.6223751 38.2071476,39.9252386 38.5811321,39.9252386 C38.9135627,39.9252386 39.1892564,39.685505 39.2459933,39.3690566 C39.42899,39.3490788 39.6007991,39.2955383 39.756626,39.214828 C39.8365372,39.3882353 40.0123418,39.5097003 40.2161154,39.5097003 C40.4966038,39.5097003 40.7235516,39.2827525 40.7235516,39.0022642 C40.7235516,38.7904994 40.5924972,38.609101 40.4079023,38.5331853 C40.4590455,38.4229079 40.4958047,38.3038402 40.5181798,38.1807769 C40.6276582,38.2103441 40.7419312,38.2271254 40.8609989,38.2271254 C40.8753829,38.2271254 40.890566,38.2255272 40.9057492,38.2255272 C40.9944506,38.4540733 41.2166038,38.6154939 41.4771143,38.6154939 C41.6768923,38.6154939 41.8542952,38.5196004 41.9661709,38.3709656 C42.0293008,38.6011099 42.2394673,38.7705216 42.4903885,38.7705216 C42.679778,38.7705216 42.8467925,38.67303 42.9442841,38.5251942 C43.0497669,38.5899223 43.1728302,38.6282797 43.3062819,38.6282797 C43.6890566,38.6282797 43.9991121,38.3174251 43.9991121,37.9346504 C43.9991121,37.8067925 43.9639512,37.6877248 43.9032186,37.5846393 C43.95596,37.6022198 44.012697,37.61101 44.0702331,37.61101 C44.3706992,37.61101 44.6144284,37.3680799 44.6144284,37.0676138 C44.6144284,37.0420422 44.6120311,37.0172697 44.6080355,36.9924972 C44.7239068,37.2154495 44.9556493,37.3672808 45.2241509,37.3672808 C45.602131,37.3672808 45.90899,37.0652164 45.916182,36.6888346 C46.0967814,36.5769589 46.2230411,36.3843729 46.2430189,36.1614206 C46.2781798,36.1734073 46.314939,36.1805993 46.3540954,36.1805993 C46.5554717,36.1805993 46.7192897,36.0175805 46.7192897,35.8154051 C46.7192897,35.7738513 46.7120977,35.7330966 46.6985128,35.6955383 L46.143929,35.5173363 L40.3503663,33.6522087 L40.327192,31.1789567 C41.2062153,30.232808 41.8926526,29.0133629 42.3897003,27.687636 C43.3310544,25.178424 43.8360932,22.5253718 43.8360932,21.136515 C43.8360932,17.5405105 40.3999112,12.8736959 36.1646171,12.8736959 L36.1678135,12.8736959 Z M24.2930078,36.199778 C24.1931188,36.199778 24.0996226,36.2285461 24.0205105,36.2772919 C22.6420422,36.805505 21.4977137,37.2442175 21.0637958,37.4200222 C20.0912764,37.8083907 19.3696781,38.8480355 19.3696781,39.878091 L19.3696781,43.1976027 L24.7477026,48.6555383 C24.8020422,48.667525 24.8595782,48.6731188 24.9179134,48.6731188 C25.2159822,48.6731188 25.4764928,48.510899 25.6155383,48.2735627 C25.7234184,48.3143174 25.8408879,48.3374917 25.9631521,48.3374917 C26.5121421,48.3374917 26.9572475,47.8923862 26.9572475,47.3433962 C26.9572475,47.3042397 26.9540511,47.2650832 26.9500555,47.227525 C27.0970921,47.4097225 27.3224417,47.5263929 27.5757603,47.5263929 C28.0200666,47.5263929 28.3828635,47.1659933 28.3828635,46.7192897 C28.3828635,46.5986238 28.3556937,46.4851498 28.3085461,46.3828635 C28.4683685,46.3261265 28.607414,46.2198446 28.7033074,46.0823973 C28.8055938,46.187081 28.9478357,46.2518091 29.1028635,46.2518091 C29.4137181,46.2518091 29.6702331,45.9992897 29.6702331,45.6924306 C29.6702331,45.5302109 29.6015094,45.3847725 29.4920311,45.281687 C29.698202,45.181798 29.854828,44.996404 29.9163596,44.7710544 C30.0458158,44.9132963 30.225616,45.0091898 30.4269922,45.0299667 C30.347081,45.1282575 30.296737,45.2537181 30.296737,45.3911654 C30.296737,45.70202 30.5492564,45.9505438 30.8641065,45.9505438 C31.1789567,45.9505438 31.4314761,45.6980244 31.4314761,45.3911654 C31.4314761,45.1362486 31.2620644,44.9212875 31.0319201,44.8517647 C31.2109212,44.703929 31.3251942,44.4801776 31.3251942,44.2300555 C31.3251942,44.1557381 31.3148058,44.0854162 31.2956271,44.0174917 C31.3203996,44.0190899 31.345172,44.0206881 31.3699445,44.0206881 C31.4834184,44.0206881 31.5912986,43.9975139 31.6887902,43.9551609 C31.6975805,44.1717203 31.8741842,44.3451276 32.093141,44.3451276 C32.3168923,44.3451276 32.4990899,44.1629301 32.4990899,43.9391787 C32.4990899,43.720222 32.3256826,43.5436182 32.1083241,43.534828 C32.150677,43.4373363 32.1746504,43.3294562 32.1746504,43.2159822 C32.1746504,43.1464595 32.1642619,43.0801332 32.1474806,43.0162042 C32.3496559,43.0162042 32.5134739,42.8531853 32.5134739,42.65101 C32.5134739,42.4496337 32.3496559,42.2866149 32.1474806,42.2866149 C32.1370921,42.2866149 32.1275028,42.2882131 32.1171143,42.2890122 C32.0963374,41.9853496 31.9397114,41.7192453 31.7071698,41.5514317 C31.7072497,41.5282575 31.7103663,41.5050832 31.7103663,41.4811099 C31.7103663,40.9321199 31.2652608,40.4878135 30.7162708,40.4878135 C30.525283,40.4878135 30.347081,40.5421532 30.1960488,40.6364484 C30.2176249,40.5789123 30.2296115,40.5165816 30.2296115,40.4518535 C30.2296115,40.1641731 29.9970699,39.9308324 29.7093896,39.9308324 C29.6574473,39.9308324 29.6087014,39.9388235 29.5615538,39.9524084 C29.5687458,39.9060599 29.5727414,39.8581132 29.5727414,39.8101665 C29.5727414,39.2611765 29.1284351,38.816071 28.5794451,38.816071 C28.4092342,38.816071 28.2494118,38.858424 28.1095671,38.9335405 C27.9841065,38.7289678 27.7899223,38.5739401 27.552586,38.5028191 C27.5821532,38.4372919 27.5997336,38.3637736 27.5997336,38.2870588 C27.5997336,37.9993785 27.3663929,37.7660377 27.0787125,37.7660377 C27.010788,37.7660377 26.946859,37.7796226 26.8877248,37.8027969 C26.8837292,37.2570033 26.4410211,36.8158935 25.8944284,36.8158935 C25.805727,36.8158935 25.7210211,36.8286792 25.6395117,36.8502553 C25.5603996,36.6640622 25.3758047,36.5330078 25.1600444,36.5330078 C25.0329856,36.5330078 24.9171143,36.5785572 24.8268147,36.6544728 C24.7916537,36.4003552 24.5750943,36.2045727 24.3113873,36.2045727 L24.2930078,36.199778 Z M48.6283685,36.3212431 C48.3838402,36.3404218 48.1848613,36.520222 48.1377137,36.75596 C48.0633962,36.7176027 47.9794895,36.6960266 47.8899889,36.6960266 C47.5895228,36.6960266 47.3465927,36.9389567 47.3465927,37.2394229 C47.3465927,37.26899 47.34899,37.297758 47.3537847,37.325727 C47.1883685,37.2026637 46.9837958,37.1291454 46.7616426,37.1291454 C46.2126526,37.1291454 45.7675472,37.5734517 45.7675472,38.1224417 L45.7675472,38.1272364 C45.666859,38.103263 45.5621754,38.0880799 45.4534961,38.0880799 C44.7263041,38.0880799 44.1421532,38.6754273 44.1421532,39.400222 C44.1421532,39.4681465 44.1485461,39.5344728 44.1589345,39.6 C44.0814206,39.5656382 43.9959156,39.5464595 43.9064151,39.5464595 C43.6994451,39.5464595 43.5164484,39.6471476 43.4013762,39.8005771 C43.2823085,39.7614206 43.1560488,39.7398446 43.0241953,39.7398446 C42.3777137,39.7398446 41.8518979,40.2504772 41.8255272,40.890566 C41.7839734,40.8817758 41.7416204,40.8777802 41.6976693,40.8777802 C41.3500555,40.8777802 41.0679689,41.1598668 41.0679689,41.5074806 C41.0679689,41.6137625 41.0943396,41.7128524 41.139889,41.8007547 C41.04,41.7440178 40.9241287,41.7112542 40.8010655,41.7112542 C40.4182908,41.7112542 40.1074362,42.0221088 40.1074362,42.4048835 C40.1074362,42.6046615 40.1929412,42.7844617 40.3279911,42.9107214 L40.3279911,42.9171143 C40.1681687,42.9330966 40.0339179,43.0409767 39.9827747,43.1880133 C39.9619978,43.2335627 39.9508102,43.2839068 39.9508102,43.3366482 C39.9508102,43.4645061 40.0171365,43.5763818 40.1170255,43.6427081 C40.1865483,43.6962486 40.2720533,43.7290122 40.3663485,43.7290122 C40.5405549,43.7290122 40.6859933,43.6195339 40.7467259,43.4661043 C40.8410211,43.5172475 40.9489012,43.5460155 41.0639734,43.5460155 C41.1159156,43.5460155 41.1662597,43.5396226 41.2150055,43.5284351 C41.21101,43.5699889 41.2086127,43.6123418 41.2086127,43.6554939 C41.2086127,43.8137181 41.239778,43.9647503 41.2957159,44.1037958 C41.0719645,44.1565372 40.9049501,44.3563152 40.9049501,44.5960488 C40.9049501,44.6703663 40.9209323,44.739889 40.9497003,44.8030189 C41.0216204,44.9860155 41.1990233,45.1162708 41.4075916,45.1162708 C41.5809989,45.1162708 41.7320311,45.0267703 41.8199334,44.8925194 C41.852697,44.8461709 41.8790677,44.7958269 41.8958491,44.7406881 C42.0516759,44.8150055 42.2258824,44.8573585 42.4104772,44.8573585 C42.4680133,44.8573585 42.5231521,44.8517647 42.5782908,44.8445727 C42.5455272,44.9316759 42.5271476,45.0259711 42.5271476,45.125061 C42.5271476,45.2553163 42.5591121,45.3775805 42.6142508,45.4862597 C42.5886792,45.481465 42.5623085,45.4782686 42.5351387,45.4782686 C42.3113873,45.4782686 42.1291898,45.659667 42.1291898,45.8842175 C42.1291898,46.1079689 42.3113873,46.2901665 42.5351387,46.2901665 C42.7373141,46.2901665 42.9035294,46.1415316 42.9338957,45.9481465 C43.043374,46.3780688 43.4325416,46.6961154 43.8928302,46.6961154 C44.1013984,46.6961154 44.2923862,46.6321865 44.4522087,46.5227081 C44.5001554,46.921465 44.839778,47.2307214 45.2513208,47.2307214 C45.4606881,47.2307214 45.6508768,47.1508102 45.794717,47.0181576 C45.7931188,47.042131 45.7907214,47.0669034 45.7907214,47.0916759 C45.7907214,47.6398668 46.2358269,48.0849723 46.7848169,48.0849723 C46.9726082,48.0849723 47.1476138,48.0322309 47.2978468,47.9411321 C47.2227303,48.0434184 47.17798,48.1696781 47.17798,48.3063263 C47.17798,48.6491454 47.4552719,48.9264373 47.7972919,48.9264373 C48.0042619,48.9264373 48.1872586,48.8241509 48.2999334,48.6691232 L53.6779578,43.7154273 L53.6779578,40.0874584 C53.6779578,38.987081 52.4936737,37.6118091 51.0616648,37.1227525 C50.74202,37.0132741 48.6195782,36.3236404 48.6195782,36.3236404 L48.6283685,36.3212431 Z M36.3611987,36.8031077 C36.0807103,36.8031077 35.8537625,37.0300555 35.8537625,37.3105438 C35.8537625,37.503929 35.9632408,37.6701443 36.1230633,37.7556493 C35.9704329,37.7996004 35.8585572,37.9386459 35.8585572,38.1048613 C35.8585572,38.3070366 36.0223751,38.4700555 36.2237514,38.4700555 C36.4251276,38.4700555 36.5889456,38.3070366 36.5889456,38.1048613 C36.5889456,37.9833962 36.5290122,37.8763152 36.4371143,37.8099889 C36.6808435,37.7732297 36.8678357,37.5646615 36.8678357,37.3105438 C36.8678357,37.0300555 36.6408879,36.8031077 36.3611987,36.8031077 L36.3611987,36.8031077 Z M34.5542453,37.2737847 L34.5512453,37.3007847 L34.5192453,37.2837847 C34.5312453,37.2807847 34.5432453,37.2767847 34.5542453,37.2737847 L34.5542453,37.2737847 Z M35.6483907,39.0006659 C35.4462153,39.0006659 35.2831964,39.1644839 35.2831964,39.3658602 C35.2831964,39.5672364 35.4462153,39.7310544 35.6483907,39.7310544 C35.8497669,39.7310544 36.0135849,39.5672364 36.0135849,39.3658602 C36.0135849,39.1644839 35.8497669,39.0006659 35.6483907,39.0006659 L35.6483907,39.0006659 Z M32.2841287,39.3890344 C31.9964484,39.3890344 31.7631077,39.6223751 31.7631077,39.9100555 C31.7631077,40.1977358 31.9964484,40.4302775 32.2841287,40.4302775 C32.5718091,40.4302775 32.8051498,40.1977358 32.8051498,39.9100555 C32.8051498,39.6223751 32.5718091,39.3890344 32.2841287,39.3890344 L32.2841287,39.3890344 Z M38.1863707,40.3144062 C37.9618202,40.3144062 37.7788235,40.4974029 37.7788235,40.7219534 C37.7788235,40.947303 37.9618202,41.1302997 38.1863707,41.1302997 C38.2191343,41.1302997 38.2510988,41.125505 38.2806659,41.1175139 C38.2958491,41.4051942 38.5323862,41.6337403 38.823263,41.6337403 C38.8632186,41.6337403 38.901576,41.6289456 38.9391343,41.6209545 C39.1916537,41.5921865 39.3882353,41.3812209 39.3882353,41.1199112 C39.3882353,41.0272142 39.3618646,40.9417092 39.3187125,40.8665927 C39.2332075,40.6780022 39.043818,40.5469478 38.823263,40.5469478 C38.7337625,40.5469478 38.6498557,40.5685239 38.5755383,40.6068812 C38.5251942,40.4390677 38.3709656,40.3152053 38.1863707,40.3152053 L38.1863707,40.3144062 Z M32.5246615,41.2477691 C32.3224861,41.2477691 32.1594673,41.4115871 32.1594673,41.6129634 C32.1594673,41.8151387 32.3224861,41.9781576 32.5246615,41.9781576 C32.6013762,41.9781576 32.6732963,41.9541842 32.7324306,41.9126304 C32.7460155,42.1811321 32.9649723,42.3920977 33.2366704,42.3920977 C33.5171587,42.3920977 33.7441065,42.1651498 33.7441065,41.8846615 C33.7441065,41.6049723 33.5171587,41.3780244 33.2366704,41.3780244 C33.0968257,41.3780244 32.970566,41.4347614 32.8786681,41.5258602 C32.8403108,41.3660377 32.6964706,41.2453718 32.5246615,41.2453718 L32.5246615,41.2477691 Z M39.6367592,43.8432852 C39.336293,43.8432852 39.0933629,44.0862153 39.0933629,44.3866815 C39.0933629,44.4554051 39.1061487,44.5209323 39.129323,44.5816648 C38.9327414,44.6088346 38.780111,44.7766482 38.780111,44.9812209 C38.780111,45.0387569 38.7928968,45.0930966 38.8144728,45.1410433 C38.8712098,45.2840844 39.0102553,45.3863707 39.1740733,45.3863707 L39.1844617,45.3863707 C39.4098113,45.3863707 39.5920089,45.2041731 39.5920089,44.9804218 C39.5920089,44.9620422 39.5888124,44.9444617 39.5864151,44.9268812 C39.6031964,44.9284795 39.6199778,44.9292786 39.6367592,44.9292786 C39.9372253,44.9292786 40.1801554,44.6863485 40.1801554,44.3858824 C40.1801554,44.0854162 39.9372253,43.8424861 39.6367592,43.8424861 L39.6367592,43.8432852 Z M35.3774917,44.5281243 C35.0970033,44.5281243 34.8700555,44.7558713 34.8700555,45.0355605 C34.8700555,45.3160488 35.0970033,45.5429967 35.3774917,45.5429967 C35.6571809,45.5429967 35.8841287,45.3160488 35.8841287,45.0355605 C35.8841287,44.7558713 35.6571809,44.5281243 35.3774917,44.5281243 L35.3774917,44.5281243 Z M32.4207769,44.7622642 C32.1970255,44.7622642 32.014828,44.9436626 32.014828,45.1682131 C32.014828,45.3919645 32.1970255,45.5733629 32.4207769,45.5733629 C32.6445283,45.5733629 32.8259267,45.3919645 32.8259267,45.1682131 C32.8259267,44.9436626 32.6445283,44.7622642 32.4207769,44.7622642 L32.4207769,44.7622642 Z M33.0153163,45.7036182 C32.7044617,45.7036182 32.4479467,45.9561376 32.4479467,46.2629967 C32.4479467,46.5458824 32.656515,46.7792231 32.927414,46.8199778 C32.9258158,46.8407547 32.9234184,46.8615316 32.9234184,46.8831077 C32.7508102,46.7408657 32.5302553,46.6545616 32.2889234,46.6545616 C31.9277248,46.6545616 31.6120755,46.8487458 31.437869,47.1340289 C31.2908324,46.9718091 31.0790677,46.8695228 30.8425305,46.8695228 C30.4669478,46.8695228 30.1520977,47.1268368 30.0633962,47.4752497 C29.9339401,47.3865483 29.7781132,47.3354051 29.6095006,47.3354051 C29.1651942,47.3354051 28.8023973,47.6950055 28.8023973,48.1425083 C28.8023973,48.2048391 28.8095893,48.2647725 28.8231743,48.3231077 C28.6098113,48.1289234 28.3269256,48.0090566 28.016071,48.0090566 C27.5198224,48.0090566 27.0946948,48.3095228 26.910899,48.7378468 C26.7814428,48.6499445 26.625616,48.5980022 26.4570033,48.5980022 C26.012697,48.5980022 25.6499001,48.9576027 25.6499001,49.4051054 C25.6499001,49.4698335 25.6578912,49.5329634 25.6722752,49.5928968 L35.4374251,59.5098779 C35.565283,59.4563374 35.6547836,59.3300777 35.6547836,59.1830411 C35.6547836,59.0439956 35.5732741,58.9249279 35.4566038,58.8665927 C35.5948502,58.8178468 35.6947392,58.6883907 35.6947392,58.5333629 C35.6947392,58.3871254 35.6060377,58.2616648 35.479778,58.2073252 C35.6052386,58.1250166 35.6875472,57.9835738 35.6875472,57.8229523 C35.6875472,57.6031964 35.5341176,57.4233962 35.3287458,57.3738513 C35.7370921,57.0917647 36.0055938,56.6210877 36.0055938,56.0872808 C36.0055938,55.7572475 35.9033074,55.4519867 35.729101,55.2002664 C36.0103885,55.0244617 36.1973807,54.712808 36.1973807,54.3572031 C36.1973807,53.9576471 35.9592453,53.6100333 35.6164262,53.4534073 C35.7514761,53.3503219 35.8385794,53.1889012 35.8385794,53.0059046 C35.8385794,52.8149168 35.743485,52.6463041 35.5988457,52.5440178 C35.6811543,52.4465261 35.7299001,52.3210655 35.7299001,52.1836182 C35.7299001,51.8727636 35.4773807,51.6242397 35.1625305,51.6242397 C35.1153829,51.6242397 35.0706326,51.6306326 35.0266815,51.6410211 C35.0898113,51.5107658 35.1265705,51.3645283 35.1265705,51.2095006 C35.1265705,51.0648613 35.094606,50.927414 35.0386681,50.8035516 C35.3311432,50.7827747 35.5612875,50.5398446 35.5612875,50.2441731 C35.5612875,50.0044395 35.4078579,49.7958713 35.1928968,49.7167592 C35.4030633,49.5345616 35.5373141,49.2660599 35.5373141,48.9655938 C35.5373141,48.6219756 35.3631077,48.3191121 35.0978024,48.1409101 C35.251232,47.9659046 35.3455272,47.7365594 35.3455272,47.4856382 C35.3455272,47.2658824 35.2736071,47.063707 35.1521421,46.8990899 C35.308768,46.8431521 35.4214428,46.6945172 35.4214428,46.5187125 C35.4214428,46.2949612 35.2400444,46.1127636 35.0154939,46.1127636 C34.8788457,46.1127636 34.7581798,46.1814872 34.6846615,46.2853718 C34.503263,46.0608213 34.225172,45.9169811 33.9135183,45.9169811 C33.7672808,45.9169811 33.6298335,45.9489456 33.505172,46.0048835 C33.4100777,45.8282797 33.2230855,45.7076138 33.0081243,45.7076138 L33.0153163,45.7036182 Z M38.5371809,45.865838 C38.1639956,45.865838 37.8611321,46.1687014 37.8611321,46.5418868 C37.8611321,46.6569589 37.8906992,46.7656382 37.9410433,46.8599334 C37.8435516,46.7800222 37.7188901,46.7312764 37.5830411,46.7312764 C37.2713873,46.7312764 37.0156715,46.9829967 37.0156715,47.2906548 C37.0156715,47.5583574 37.2026637,47.7821088 37.4535849,47.8388457 C37.3800666,47.9778912 37.3377137,48.1353163 37.3377137,48.3031299 C37.3377137,48.6227747 37.4919423,48.9112542 37.7300777,49.0926526 C37.6389789,49.2620644 37.5870366,49.4554495 37.5870366,49.6608213 C37.5870366,49.979667 37.7116981,50.2689456 37.9146726,50.4839068 C37.8483463,50.6333407 37.810788,50.7979578 37.810788,50.9713651 C37.810788,51.0384906 37.81798,51.1040178 37.8283685,51.1679467 C37.746859,51.1120089 37.6501665,51.0752497 37.5454828,51.0680577 C37.6142064,50.9745616 37.6557603,50.8594895 37.6557603,50.734828 C37.6557603,50.4231743 37.4032408,50.1754495 37.0883907,50.1754495 C36.776737,50.1754495 36.5210211,50.4271698 36.5210211,50.734828 C36.5210211,50.8842619 36.5785572,51.0193119 36.6736515,51.12 C36.4379134,51.1871254 36.2645061,51.4044839 36.2645061,51.661798 C36.2645061,51.9726526 36.5170255,52.2211765 36.8318757,52.2211765 C36.8494562,52.2211765 36.8662375,52.21798 36.883818,52.2163818 C36.7799334,52.3937847 36.7192009,52.6007547 36.7192009,52.8213097 C36.7192009,53.2408435 36.934162,53.6092342 37.2594007,53.8241953 C36.8294784,54.007192 36.527414,54.4339179 36.527414,54.9309656 C36.527414,55.2913651 36.6864373,55.6142064 36.9381576,55.8347614 C36.6776471,56.0137625 36.5066371,56.3134295 36.5066371,56.6530522 C36.5066371,56.7920977 36.5354051,56.9239512 36.5865483,57.043818 C36.5138291,57.1644839 36.4714761,57.3051276 36.4714761,57.4561598 C36.4714761,57.6303663 36.5282131,57.7917869 36.6225083,57.9236404 C36.5409989,57.9883685 36.4874584,58.0874584 36.4874584,58.2001332 C36.4874584,58.3215982 36.54899,58.4294784 36.6424861,58.4934073 C36.5449945,58.5565372 36.4826637,58.6652164 36.4826637,58.7898779 C36.4826637,58.8122531 36.485061,58.8346282 36.4890566,58.8562042 C36.4091454,58.9209323 36.3548058,59.0192231 36.3548058,59.1318979 C36.3548058,59.2789345 36.4443063,59.4043951 36.5713651,59.4587347 L47.0956715,49.7415316 C47.1164484,49.6823973 47.1284351,49.6192675 47.1284351,49.5529412 C47.1284351,49.2412875 46.8759156,48.9935627 46.5690566,48.9935627 C46.472364,48.9935627 46.3812653,49.0183352 46.3021532,49.0606881 C46.2046615,48.7258602 45.8954051,48.4813319 45.5294118,48.4813319 C45.3711876,48.4813319 45.2249501,48.5276804 45.1002886,48.6059933 C45.1018868,48.5852164 45.103485,48.5652386 45.103485,48.5444617 C45.103485,47.9954717 44.6583796,47.5503663 44.1093896,47.5503663 C43.9807325,47.5503663 43.8584684,47.5759378 43.7457936,47.6206881 C43.7314095,47.3218202 43.4860821,47.0836848 43.1864151,47.0836848 C42.8747614,47.0836848 42.6270366,47.3362042 42.6270366,47.6510544 C42.6270366,47.6750277 42.6286349,47.6990011 42.6318313,47.7221754 C42.4903885,47.4920311 42.2362708,47.3378024 41.9461931,47.3378024 C41.8998446,47.3378024 41.8550943,47.3425971 41.8111432,47.3497891 C41.8047503,46.8063929 41.3628413,46.3676804 40.8178468,46.3676804 C40.761909,46.3676804 40.7083685,46.3732741 40.654828,46.3820644 C40.6284573,46.0959822 40.3871254,45.8722309 40.0954495,45.8722309 C39.8525194,45.8722309 39.6463485,46.0256604 39.5664373,46.2406215 C39.5416648,46.2390233 39.5168923,46.2374251 39.4913208,46.2374251 C39.3778468,46.2374251 39.2683685,46.2542064 39.1644839,46.2829745 C39.0677913,46.0280577 38.8216648,45.8458602 38.5323862,45.8458602 L38.5371809,45.865838 Z M36.2836848,48.0817758 C36.0591343,48.0817758 35.8777358,48.2639734 35.8777358,48.4877248 C35.8777358,48.6091898 35.9320755,48.7162708 36.0159822,48.7905882 C35.907303,48.8928746 35.8393785,49.038313 35.8393785,49.1997336 C35.8393785,49.5105882 36.0918979,49.7591121 36.4067481,49.7591121 C36.7184018,49.7591121 36.9741176,49.5065927 36.9741176,49.1997336 C36.9741176,48.9711876 36.8382686,48.7754051 36.6424861,48.6867037 C36.6760488,48.6275694 36.6968257,48.560444 36.6968257,48.4877248 C36.6968257,48.2639734 36.5154273,48.0817758 36.2916759,48.0817758 L36.2836848,48.0817758 Z" id="Shape" fill="#000000" fill-rule="nonzero"></path>
                    </g>
                </g>
            </g>
        </g>
    </g>
</svg>