<?xml version="1.0" encoding="UTF-8" standalone="no"?>
<svg width="72px" height="72px" viewBox="0 0 72 72" version="1.1" xmlns="http://www.w3.org/2000/svg" xmlns:xlink="http://www.w3.org/1999/xlink">
    <!-- Generator: Sketch 42 (36781) - http://www.bohemiancoding.com/sketch -->
    <title>ghs-pictogram-exclamation-mark</title>
    <desc>Created with Sketch.</desc>
    <defs></defs>
    <g id="Style-Guide-und-Materialien" stroke="none" stroke-width="1" fill="none" fill-rule="evenodd">
        <g id="Materialien" transform="translate(-302.000000, -83.000000)">
            <g id="GHS-Pictograms" transform="translate(118.000000, 83.000000)">
                <g id="Pictogram/GHS/ExclamationMark" transform="translate(184.000000, 0.000000)">
                    <g id="GHS-pictogram-exclam">
                        <path d="M2.45094159,36.0218057 L35.9783962,69.5492622 L69.5114425,36.0162159 C58.3301867,24.8477079 47.1710248,13.6570692 35.9839873,2.49435225 L2.45094159,36.0218057 Z" id="Shape" fill="#FFFFFF" fill-rule="nonzero"></path>
                        <path d="M0,36.021807 L35.978193,72 L71.9623848,36.0158083 L35.9841917,0.0436152381 L0,36.021807 Z M66.2629879,36.0158083 L35.978193,66.2994032 L5.70779594,36.0134083 L35.9841917,5.74301206 L66.2629879,36.0158083 Z" id="Shape" fill="#FF0000" fill-rule="nonzero"></path>
                        <path d="M35.9587302,17.3746032 C35.8478923,17.3758019 35.7574806,17.3785549 35.7142857,17.3809524 C34.1448513,17.4889407 32.7568213,18.0436043 31.8857143,18.9111111 C31.6085435,19.1870822 31.4329488,19.4265163 31.2793651,19.7396825 C31.1713768,19.9592594 31.1166364,20.12448 31.0698413,20.3428571 C31.0398436,20.4856422 31.0349206,20.5169057 31.0349206,20.7904762 C31.0349206,21.0556485 31.0378667,21.0999599 31.0666667,21.2571429 C31.0978631,21.4323241 33.5429801,37.9466768 33.5777778,38.2190476 C33.6017747,38.4086268 33.6669156,38.6585397 33.7365079,38.8349206 C34.1000696,39.7528229 34.9028185,40.3953473 35.8603175,40.5333333 C36.0402987,40.5597298 36.4327172,40.5597298 36.6126984,40.5333333 C37.7969727,40.3629511 38.7404536,39.4049473 38.8952381,38.215873 C38.938433,37.8835078 41.3751528,21.4076272 41.4063492,21.2444444 C41.4339464,21.0884612 41.4349206,21.0439995 41.4349206,20.7968254 C41.4349206,20.5076571 41.426621,20.4039782 41.3714286,20.2 C41.2778382,19.8568371 41.0923926,19.5008173 40.847619,19.1936508 C40.6532389,18.9488762 40.3357389,18.6604221 40.0285714,18.4444444 C39.3374456,17.9596963 38.3761971,17.5943528 37.4126984,17.4539683 C36.9807441,17.3915743 36.8261313,17.3794032 36.3269841,17.3746032 C36.201597,17.3734044 36.069568,17.3734044 35.9587302,17.3746032 L35.9587302,17.3746032 Z M36.2253968,42.9142857 C36.1623284,42.9140825 36.102338,42.9150984 36.0444444,42.9174552 C35.0917445,42.9582497 34.1892643,43.3638867 33.4825397,44.0730108 C33.2689615,44.286589 33.1330611,44.4496091 32.9650794,44.7015822 C32.5751203,45.28832 32.3678822,45.8578987 32.2634921,46.6222171 C32.2430943,46.7758009 32.2418946,47.4708825 32.2634921,47.6412648 C32.3666814,48.4811764 32.6741821,49.2271289 33.184127,49.8666616 C33.307714,50.0226448 33.5587261,50.2819068 33.7111111,50.4126933 C34.1718613,50.8074514 34.7277735,51.10208 35.2857143,51.2412648 C35.6504757,51.3324546 35.8401625,51.3555505 36.2349206,51.3555505 C36.62368,51.3555505 36.8207147,51.3308292 37.1650794,51.2444394 C38.1033793,51.0104635 38.9475962,50.4061857 39.5079365,49.5650743 C39.9206928,48.9435388 40.1586286,48.2551782 40.2222222,47.4920584 C40.2390207,47.2868815 40.2283683,46.7672777 40.2031746,46.5872965 C40.1323825,46.0653511 40.0060282,45.6411236 39.7936508,45.2031695 C39.1949135,43.9732998 38.0533933,43.1216335 36.7587302,42.9428521 C36.6174446,42.9239538 36.4146022,42.9147865 36.2253968,42.9142806 L36.2253968,42.9142857 Z" id="Shape" fill="#000000" fill-rule="nonzero"></path>
                    </g>
                </g>
            </g>
        </g>
    </g>
</svg>