<?xml version="1.0" encoding="UTF-8" standalone="no"?>
<svg width="72px" height="72px" viewBox="0 0 72 72" version="1.1" xmlns="http://www.w3.org/2000/svg" xmlns:xlink="http://www.w3.org/1999/xlink">
    <!-- Generator: Sketch 42 (36781) - http://www.bohemiancoding.com/sketch -->
    <title>ghs-pictogram-environment</title>
    <desc>Created with Sketch.</desc>
    <defs></defs>
    <g id="Style-Guide-und-Materialien" stroke="none" stroke-width="1" fill="none" fill-rule="evenodd">
        <g id="Materialien" transform="translate(-118.000000, -175.000000)">
            <g id="GHS-Pictograms" transform="translate(118.000000, 83.000000)">
                <g id="Pictogram/GHS/Environment" transform="translate(0.000000, 92.000000)">
                    <g id="GHS-pictogram-pollu">
                        <polygon id="Shape" fill="#FF0000" fill-rule="nonzero" points="36 71.9400832 71.9500693 35.9900139 36 0.0399445215 0.0499306519 35.9900139"></polygon>
                        <polygon id="Shape" fill="#FFFFFF" fill-rule="nonzero" points="36 66.2380028 5.76199723 36 36 5.76199723 66.2380028 36"></polygon>
                        <path id="Shape" stroke="#000000" stroke-width="5" fill="#000000" fill-rule="nonzero"></path>
                        <path d="M45.5428784,40.8227615 L49.1892405,43.4530512 L46.4075603,44.7924444 L50.2581434,45.1382669 L49.1484802,46.6132594 L51.2684537,46.6132594 L51.3352851,48.6875085 L20.3977792,48.5187297 L21.6930451,48.1348887 C21.764151,48.1140827 21.80134,48.1033266 21.8435773,48.0912211 C21.9640756,48.0566853 22.100982,48.0182242 22.2517801,47.9768176 C22.6825203,47.8585437 23.1385342,47.7402769 23.5997593,47.6298485 C23.9544865,47.5449182 24.298491,47.4680128 24.6269564,47.4010311 C26.0507849,47.1106793 27.027843,47.0258722 27.4831421,47.2402921 C28.2487991,46.9004358 30.4979345,45.9453631 32.2845429,45.2072413 C33.4390531,44.7302653 34.4122888,44.3378076 35.1185178,44.0664333 C35.5133005,43.9147348 35.8214479,43.8021001 36.0360961,43.7316446 C36.1527769,43.6933456 36.2428868,43.6671208 36.3082544,43.6529563 C36.3506118,43.6437779 36.3853098,43.6388376 36.4179716,43.6390403 C36.4253035,43.6390859 45.5428784,40.8227615 45.5428784,40.8227615 Z M28.8376782,32.8441261 L24.6782772,30.5852754 C24.6564446,30.5716993 24.639356,30.561438 24.6122029,30.5470511 C24.5640566,30.521541 24.5071916,30.4956716 24.4423353,30.4713294 C24.0985136,30.3422845 23.6997993,30.3111209 23.2709248,30.4374624 C23.2074983,30.4585396 23.1380605,30.4803194 23.0633856,30.5026942 C22.9399687,30.5396734 22.8081822,30.5765443 22.6764569,30.6116548 C22.6303994,30.6239311 22.5876151,30.6351171 22.5491768,30.6449992 C22.5259996,30.6509579 21.6558383,30.8685533 21.6558383,30.8685533 L22.3237507,30.3104308 C22.368633,30.2731827 22.3919431,30.2539595 22.418304,30.2323283 C22.4934913,30.1706312 22.5781453,30.1019271 22.6704509,30.0279587 C22.9342376,29.8165751 23.2067187,29.6051626 23.4735037,29.4075865 C23.5667522,29.3385284 23.6578743,29.2722432 23.7465119,29.2090805 C24.5291117,28.6514028 25.0062299,28.3923699 25.2759769,28.4951043 C25.4606339,28.5641908 26.0723543,28.8464217 26.9940004,29.2831413 C27.4159545,29.4831941 27.8174494,29.6748312 28.2171386,29.8664645 C28.27973,29.8964744 28.3402764,29.9255253 28.3984865,29.9534743 C28.392487,29.9228067 28.386225,29.8914981 28.3796988,29.8596001 C28.3071054,29.5047885 28.2171094,29.1501773 28.1091406,28.8205758 C27.9075355,28.2051266 27.6667798,27.7530089 27.4029778,27.5419023 C27.0956433,27.2959589 26.4368859,26.7719962 25.5316515,26.0531311 C25.0756821,25.6910379 24.5916182,25.3068412 24.1075535,24.922782 C23.9381303,24.7883608 23.7808089,24.6635585 23.6396235,24.5515701 C23.5609636,24.4891782 23.5609636,24.4891782 23.5085247,24.4475873 C23.4702049,24.4171956 23.3865187,24.3508285 23.3865187,24.3508285 L23.3865187,23.3050644 L27.6642285,25.9045342 C27.6746438,25.2515456 27.6262653,24.5109353 27.4799873,23.8050616 C27.366656,23.2581742 27.2020149,22.7863812 26.9814579,22.4128154 C26.6018341,21.7720631 26.2366494,21.1163286 25.8990355,20.4808938 C25.7808578,20.2584676 25.6745436,20.0544195 25.5817441,19.8731714 C25.5492256,19.8096591 25.5207072,19.7535088 25.4963956,19.7052738 C25.4817485,19.6762134 25.3948554,19.5014888 25.3948554,19.5014888 L25.962294,19.0475379 L27.958828,22.1170907 L28.5642631,20.1969967 L29.4024015,19.987946 L29.3503244,20.28982 C29.348104,20.3026912 29.3438574,20.3279214 29.3378744,20.3644585 C29.3278531,20.4256553 29.3166734,20.4960603 29.3046246,20.57462 C29.2701636,20.7993101 29.2356906,21.0440311 29.2035209,21.3003287 C29.152982,21.7029754 29.1129817,22.0958116 29.0874705,22.4641461 C29.0280801,23.3216311 29.0535346,23.9682299 29.1778366,24.2876762 C29.3242421,24.6635405 29.6212284,25.6638819 30.028319,27.1230512 C30.0503094,27.2018734 30.0725507,27.2817882 30.0950302,27.3627462 C30.2900573,28.0651168 30.4951973,28.8175389 30.6978097,29.5699445 C30.7539653,29.7784795 30.8067473,29.9752212 30.8553703,30.1570586 L32.6829815,27.5325742 C32.684493,27.4895548 32.6860038,27.4404126 32.687418,27.3858735 C32.6978757,26.982574 32.6974,26.5504657 32.6786733,26.1464571 C32.6678226,25.9123648 32.6511846,25.7004498 32.6282239,25.5163393 C32.6022496,25.308304 32.5725477,24.9216578 32.5394291,24.3799531 C32.5178506,24.0270052 32.4951985,23.6140967 32.4718322,23.1532512 C32.4439475,22.6032918 32.4164857,22.014157 32.3906306,21.4250373 C32.3815819,21.2188573 32.3733801,21.0274008 32.3661735,20.8555716 C32.3636509,20.7954223 32.3614326,20.7420196 32.3595374,20.6959765 C32.3576229,20.6493001 32.3488113,20.4316227 32.3488113,20.4316227 L33.1096823,20.4316227 L33.6677403,24.53968 L37.1344244,20.5270694 L37.1344244,21.5657971 L37.0911099,21.6203442 C37.0267867,21.701917 36.9931005,21.7449097 36.9551331,21.7936111 C36.8465512,21.9328912 36.725517,22.0898864 36.5951522,22.2611742 C36.2227211,22.7505153 35.8503166,23.2560834 35.5029837,23.7503659 C35.3800043,23.9253755 35.2621555,24.0962012 35.1501109,24.2620985 C34.3540839,25.4407243 33.8974315,26.3138946 33.9498474,26.6290153 C33.9546956,26.6390494 34.0097705,26.9425756 34.0243191,27.0276346 C34.0517779,27.188175 34.0702673,27.3171409 34.0826304,27.4426118 C34.1451661,28.0772769 34.0376991,28.6455646 33.6621087,29.4662994 C33.4833209,29.8569837 33.3148696,30.2334396 33.1584473,30.5900422 C33.2473019,30.4981374 33.3366912,30.407629 33.4261074,30.319274 C33.5783641,30.1688243 33.7263733,30.029002 33.8688226,29.9018398 C34.3571443,29.4659227 34.7547401,29.1973543 35.0624043,29.1363519 C35.2114399,29.1247588 35.3190468,29.1206525 35.5456192,29.1141567 C35.9266804,29.1032317 36.0880148,29.0956683 36.2956304,29.0741945 C36.8624648,29.0155664 37.2829549,28.8716306 37.6155813,28.5864594 C37.8630809,28.3742702 38.2507903,27.9893889 38.7376258,27.4789756 C38.7780489,27.4365948 38.8190237,27.3934849 38.8605171,27.3496851 C39.1590871,27.0345186 39.4723127,26.6966482 39.7809931,26.3587525 C39.8890482,26.2404704 39.9888064,26.1306453 40.0778759,26.0321039 C40.1090333,25.9976332 40.1366231,25.9670418 40.1603465,25.9406829 C40.1745519,25.9248994 40.5056643,26.1503178 40.5056643,26.1503178 L37.5873928,30.6611142 L37.4839267,30.6652498 C37.4698989,30.6658105 37.44153,30.667446 37.4009085,30.6706088 C37.3320878,30.6759672 37.2551246,30.683754 37.1721268,30.6944091 C36.9355278,30.7247834 36.6992383,30.7718299 36.4806349,30.8385466 C36.1482682,30.9399833 35.8903141,31.0773931 35.7353443,31.2481467 C35.5289197,31.4751757 35.0639871,32.0014238 34.419528,32.7359174 C34.095229,33.1055453 33.7613771,33.4869095 33.4280181,33.8682766 C33.3113403,34.0017575 33.2030593,34.1257033 33.1059334,34.2369347 C33.062167,34.2870615 33.053803,34.296641 33.0331207,34.3203351 L33.0331207,39.9539017 L37.1637337,42.0192082 L32.1383935,42.7460737 L30.9818129,44.4221536 L29.4195564,43.0910254 L24.5456668,43.5391785 L28.6803383,41.1384594 L28.8376782,32.8441261 Z" id="Shape" fill="#000000" fill-rule="nonzero"></path>
                        <path d="M36.4973636,42.6325125 C37.2304115,42.1870903 37.8158724,41.6758191 38.2375682,41.0683352 C38.2782494,41.0097704 38.9155156,40.0524562 39.1830891,39.6687655 C39.6918887,38.9391653 40.1961747,38.2783327 40.7392556,37.6512427 C42.9783659,35.065765 45.3712995,33.6331424 47.9741251,33.8921563 L48.309276,33.925508 L48.1799053,34.2364769 C48.0892703,34.4543365 47.9341378,34.7574719 47.7284017,35.1275339 C47.6994747,35.1795655 47.6696937,35.2326467 47.6391272,35.2866771 C47.550774,35.4428531 47.458338,35.6026496 47.3645204,35.7620838 L50.5658675,34.7752298 L50.5697474,35.109334 C50.5699508,35.1431751 50.5685607,35.1924273 50.5643129,35.2582395 C50.557722,35.3603535 50.5457028,35.4766437 50.5269673,35.6059259 C50.4747207,35.9664476 50.3801374,36.3645647 50.2328886,36.7906762 C49.8175797,37.9925053 49.0682029,39.1900394 47.9044162,40.3041941 C46.8522002,41.3115363 45.5055048,42.2032371 43.8340551,42.949622 C42.8757502,43.2869515 42.4246386,43.4365401 41.2349187,43.8220194 C40.5456662,44.045343 40.3093895,44.1298488 40.1375355,44.2204486 C40.0374679,44.2732032 39.9809321,44.3193144 39.9411409,44.3744242 C39.8382022,44.5189197 39.5802884,44.9036557 39.2177519,45.451408 C39.0377077,45.7234848 38.8575835,45.9967319 38.6779174,46.2699859 C38.6150308,46.36563 38.5566949,46.4544407 38.5043895,46.5341384 C38.4752555,46.5785361 38.4752555,46.5785361 38.4558485,46.6081255 C38.4416747,46.6297409 38.3227694,46.8111674 38.3227694,46.8111674 L31.6286116,43.8610761 L32.7144123,43.8213046 C32.7315766,43.8206759 32.7648677,43.8192042 32.811959,43.8167144 C32.8910391,43.8125334 32.9793033,43.8069846 33.074412,43.7998965 C33.3457249,43.7796764 33.6168389,43.7512515 33.8685694,43.7134107 C34.1923225,43.6647433 34.4581915,43.6039932 34.6411187,43.5331992 C35.4908736,43.1789282 35.9618353,42.9579158 36.4973636,42.6325125 Z" id="Shape" fill="#000000" fill-rule="nonzero"></path>
                        <path d="M34.8681066,43.9800269 C34.638662,44.0760734 34.3246701,44.1497649 33.9427925,44.2071697 C33.8701484,44.2180897 33.7961893,44.2282436 33.7212791,44.2376647 L38.1371465,46.1837216 C38.1758336,46.1248081 38.2171854,46.061874 38.2607138,45.9956719 C38.4406293,45.7220387 38.6210124,45.4483988 38.7900479,45.1929565 C39.1680198,44.6218813 39.4267013,44.2360001 39.5353913,44.0834399 C39.6246257,43.9598338 39.740526,43.8653043 39.9046829,43.7787624 C40.1133397,43.6687606 40.357091,43.5815814 41.0810161,43.3470236 C42.2629541,42.9640657 42.7121256,42.8151516 43.6398288,42.4895229 C45.2555937,41.7669273 46.5511511,40.9085136 47.5591277,39.9435242 C48.6642111,38.8855691 49.3709941,37.7561017 49.7609649,36.6275964 C49.8976523,36.2320477 49.9849716,35.8645058 50.0328228,35.5343148 C50.0365605,35.5085233 50.0399941,35.4833671 50.0431373,35.4588593 L46.2544295,36.6267744 L46.6024118,36.0618053 C46.6116563,36.0467965 46.6291925,36.018157 46.6538325,35.9776453 C46.6950107,35.9099428 46.7409228,35.8338753 46.7903794,35.7512045 C46.9316469,35.5150644 47.0728929,35.2735334 47.2045446,35.0408214 C47.2345145,34.9878457 47.263691,34.9358421 47.2920025,34.8849176 C47.4000917,34.6904951 47.493426,34.5157033 47.5691413,34.365143 C45.2972655,34.2862964 43.1543648,35.6252401 41.1166943,37.9781173 C40.5862282,38.5906411 40.0921711,39.2380695 39.5926428,39.954375 C39.3291054,40.3322781 38.692179,41.2890817 38.6476918,41.3531257 C38.1820833,42.0238691 37.5451076,42.5801272 36.7566447,43.0592212 C36.2290845,43.3797828 35.7665161,43.6014369 35.0213592,43.915319 L34.8681066,43.9800269 Z" id="Path" fill="#FFFFFF"></path>
                        <ellipse id="Oval" fill="#000000" fill-rule="nonzero" cx="47.6638003" cy="37.8274619" rx="0.594174757" ry="0.512288488"></ellipse>
                    </g>
                </g>
            </g>
        </g>
    </g>
</svg>