<?xml version="1.0" encoding="UTF-8" standalone="no"?>
<svg width="72px" height="72px" viewBox="0 0 72 72" version="1.1" xmlns="http://www.w3.org/2000/svg" xmlns:xlink="http://www.w3.org/1999/xlink">
    <!-- Generator: Sketch 42 (36781) - http://www.bohemiancoding.com/sketch -->
    <title>ghs-pictogram-flame-over-circle</title>
    <desc>Created with Sketch.</desc>
    <defs></defs>
    <g id="Style-Guide-und-Materialien" stroke="none" stroke-width="1" fill="none" fill-rule="evenodd">
        <g id="Materialien" transform="translate(-210.000000, -175.000000)">
            <g id="GHS-Pictograms" transform="translate(118.000000, 83.000000)">
                <g id="Pictogram/GHS/FlameOverCircle" transform="translate(92.000000, 92.000000)">
                    <g id="GHS-pictogram-rondflam">
                        <path d="M2.45094159,36.0218057 L35.9783962,69.5492622 L69.5114425,36.0162159 C58.3301867,24.8477079 47.1710248,13.6570692 35.9839873,2.49435225 L2.45094159,36.0218057 Z" id="Shape" fill="#FFFFFF" fill-rule="nonzero"></path>
                        <path d="M17.9884965,18.0333117 L0,36.021807 L17.9896965,54.0115035 L35.978193,72 L53.9702883,54.0079035 L71.9623848,36.0158083 L53.9762883,18.0297117 C44.0845346,8.1379586 35.9877917,0.0436152381 35.9841917,0.0436152381 C35.9805854,0.0436152381 27.8826489,8.13915848 17.9884965,18.0333117 Z M51.1265892,20.8794095 L66.2629879,36.0158083 L51.1193905,51.1594057 L35.976993,66.3018032 L20.8417943,51.1582057 L5.70659606,36.0146083 L20.8429943,20.8782108 C29.167713,12.5534908 35.9805917,5.74301206 35.9841917,5.74301206 C35.9877854,5.74301206 42.8018705,12.5546908 51.1265892,20.8794095 L51.1265892,20.8794095 Z" id="Shape" fill="#FF0000" fill-rule="nonzero"></path>
                        <path d="M35.6761905,9.97460317 C34.554433,11.1886771 35.6726756,16.1839187 33.3555556,20.8666667 C32.1542725,19.5852993 31.6725669,17.1822344 30.3111111,15.9809524 C31.0293801,17.8229191 29.0284363,17.6630004 29.7492063,24.0698413 C28.6614857,23.7979114 28.6279619,23.3497437 26.2253968,20.4666667 C26.6727396,23.2625564 26.38861,25.0322204 26.9492063,28.1555556 C26.9492063,28.1555556 26.3701222,28.0335401 23.584127,25.9904762 C24.4883393,29.0362413 22.9086994,35.4494415 26.5079365,39.984127 L26.4952381,39.9746032 C26.7722281,44.0781206 29.6647558,47.4678634 33.5174603,48.4920635 L26.5555556,48.4920635 L26.5555556,51.4412698 L45.9714286,51.4412698 L45.9714286,48.4920635 L38.4,48.4920635 C41.8857062,47.5652846 44.5832361,44.7012775 45.2698413,41.1238095 L45.2698413,41.12064 C46.2240518,39.5955058 50.4918471,34.6584625 47.2095238,26.7142908 C47.2095238,26.7142908 46.2465473,28.4796587 44.4857143,28.9555606 C44.4857143,28.9555606 46.7417275,25.1949775 44.8857143,22.1492114 C44.8857143,22.1492114 44.3417265,24.3746662 42.4857143,24.4698463 C42.4857143,24.4698463 43.389117,19.723267 40.9619048,16.7015924 C40.0809641,18.7037308 41.4893978,19.5333953 38.5587302,21.1873067 C38.1577793,15.0186291 36.8774735,13.9788841 35.6761905,9.97460825 L35.6761905,9.97460317 Z M35.0349206,23.4285714 C36.153922,24.117187 36.9588815,25.301567 37.2031746,27.5238095 C37.3106276,28.5012714 37.6760056,29.0614177 37.9428571,30.0539683 C37.3029364,29.9175812 36.6391548,29.8444444 35.9587302,29.8444444 C35.1272411,29.8444444 34.3211449,29.9510847 33.552381,30.152381 C33.3819672,26.9149745 35.076477,27.6257747 35.0349206,23.4285714 Z M30.952381,25.752381 C30.952381,25.752381 31.4002773,28.5743959 32.5428571,30.4793651 C31.7377991,30.7905676 30.9865427,31.2102248 30.3047619,31.7174603 C29.9294039,28.7918984 30.7794357,28.1303589 30.952381,25.752381 Z M40.8825397,27.1936508 C40.8825397,27.1936508 41.3020719,30.0193168 41.8730159,31.9142857 C40.9682672,31.1913072 39.9277074,30.6307962 38.7968254,30.2761905 C39.2734141,29.3008853 40.0065564,28.0165445 40.8825397,27.1936508 Z M26.5460317,30.3174603 C26.5460317,30.3174603 27.3963246,31.1751284 29.6190476,32.2761905 C28.8391121,32.9774293 28.1769803,33.8071162 27.6634921,34.7301587 C27.3168792,33.5949135 26.8304549,31.8817818 26.5460317,30.3174603 Z M45.368254,31.3587302 C45.4428485,32.4030517 45.4441539,34.9436973 44.968254,36.3238095 L44.9714235,36.3714286 C44.5509557,35.0894659 43.8649763,33.9284612 42.9777727,32.952381 C43.5500536,32.4950136 44.5231177,31.7656462 45.3682489,31.3587302 L45.368254,31.3587302 Z M35.8761905,32.5936508 C39.6177209,32.5936518 42.6539683,35.6330728 42.6539683,39.3746032 C42.6539683,43.1161336 39.6177209,46.152381 35.8761905,46.152381 C32.1346611,46.152381 29.0984127,43.1161336 29.0984127,39.3746032 C29.0984127,35.6330738 32.1346601,32.5936508 35.8761905,32.5936508 Z" id="Shape" fill="#000000" fill-rule="nonzero"></path>
                    </g>
                </g>
            </g>
        </g>
    </g>
</svg>