<?xml version="1.0" encoding="UTF-8" standalone="no"?>
<svg width="72px" height="72px" viewBox="0 0 72 72" version="1.1" xmlns="http://www.w3.org/2000/svg" xmlns:xlink="http://www.w3.org/1999/xlink">
    <!-- Generator: Sketch 42 (36781) - http://www.bohemiancoding.com/sketch -->
    <title>ghs-pictogram-corrision</title>
    <desc>Created with Sketch.</desc>
    <defs></defs>
    <g id="Style-Guide-und-Materialien" stroke="none" stroke-width="1" fill="none" fill-rule="evenodd">
        <g id="Materialien" transform="translate(-118.000000, -83.000000)">
            <g id="GHS-Pictograms" transform="translate(118.000000, 83.000000)">
                <g id="Pictogram/GHS/Corrision">
                    <g id="GHS-pictogram-acid">
                        <polygon id="Shape" fill="#FF0000" fill-rule="nonzero" points="36 71.9400832 71.9500693 35.9900139 36 0.0399445215 0.0499306519 35.9900139"></polygon>
                        <polygon id="Shape" fill="#FFFFFF" fill-rule="nonzero" points="36 66.2380028 5.76199723 36 36 5.76199723 66.2380028 36"></polygon>
                        <path d="M22.598613,37.6576976 C21.4901526,37.6576976 20.8110957,37.2732316 20.4915395,36.6461026 L12.5046325,36.6461026 L12.5046325,40.2970319 L32.4069903,40.2970319 L32.4069903,36.6461026 L25.1670458,36.6461026 C24.6747295,37.2772261 23.7150624,37.6576976 22.5946186,37.6576976" id="Shape" fill="#000000" fill-rule="nonzero"></path>
                        <path d="M24.436061,36.2995839 C24.7606103,36.2995839 25.2259639,36.1428017 25.6014424,35.390846 C25.6873232,35.2200832 25.7042996,35.0023856 25.7232732,34.771706 C25.7332594,34.6518724 25.7492372,34.4591401 25.7771983,34.3852427 C25.8131484,34.3602774 25.8960333,34.3243273 25.9549515,34.2983634 C26.1756449,34.2014979 26.4782247,34.069681 26.6370042,33.7521221 C26.7258807,33.5743689 26.7518447,33.398613 26.7518447,33.230846 C26.7518447,33.1050208 26.7368655,32.9841886 26.7228849,32.8693481 C26.7079057,32.748516 26.6949237,32.6326768 26.6949237,32.5128433 C26.6949237,32.4719001 26.6950236,32.430957 26.6999168,32.3890153 C26.7178918,32.1793065 27.08638,31.7249376 27.4179196,31.432344 L26.9116227,30.8561442 C26.7578363,30.990957 25.9899029,31.6949792 25.9349792,32.3231068 C25.9140083,32.5697642 25.9389736,32.7784743 25.9609431,32.9622191 C25.9869071,33.1809154 25.999889,33.3097365 25.9499584,33.4095978 C25.9150069,33.4785021 25.7732039,33.5414147 25.64638,33.5963384 C25.4506519,33.6822191 25.2299584,33.778086 25.107129,34.0027739 C24.9992788,34.2014979 24.9783079,34.4601387 24.957337,34.7107906 C24.9483495,34.8256311 24.9343689,35.0003883 24.9123994,35.0523162 C24.846491,35.1831345 24.7775867,35.2889875 24.7066852,35.3678779 C24.6587517,35.4996949 24.5758669,35.6884327 24.4340638,35.8921498 L24.4340638,36.2995839" id="Shape" fill="#000000" fill-rule="nonzero"></path>
                        <path d="M23.437448,35.8202497 L23.8758391,36.4493759 C24.126491,36.2746186 24.3062413,36.0768932 24.436061,35.8911512 C24.5778641,35.6884327 24.6597503,35.4996949 24.7086824,35.3668793 C24.7266574,35.3169487 24.740638,35.2750069 24.7506241,35.2440499 C24.8195284,35.0293481 24.7685992,34.8256311 24.7236616,34.6468793 C24.6767268,34.4591401 24.6497642,34.3383079 24.7016921,34.224466 C24.7616089,34.0906519 24.8634674,34.0107628 24.9922885,33.9099029 C25.1390846,33.7950624 25.3218308,33.6512621 25.4356727,33.4105964 C25.5774757,33.1130097 25.4945908,32.784466 25.4147018,32.4679057 C25.3587795,32.245215 25.3008599,32.0145354 25.3318169,31.8387795 L24.5768655,31.7049653 C24.5618863,31.7868516 24.5558946,31.8677393 24.5558946,31.9486269 C24.5558946,32.1992788 24.6158114,32.4389459 24.6717337,32.6566436 C24.7026907,32.779473 24.7476283,32.9562275 24.7476283,33.0461026 C24.7476283,33.0620804 24.7475284,33.0750624 24.7436338,33.0850485 C24.709681,33.1569487 24.6397781,33.2138696 24.5199445,33.3087379 C24.3511789,33.4415534 24.1414702,33.6063245 24.0046602,33.9079057 C23.9337587,34.0656865 23.909792,34.2184743 23.909792,34.3582802 C23.909792,34.542025 23.9507351,34.7047989 23.9826907,34.8316227 C23.9976699,34.8915395 24.0196394,34.9794175 24.020638,35.0153675 C23.9417476,35.2570319 23.803939,35.5646047 23.4404438,35.814258" id="Shape" fill="#000000" fill-rule="nonzero"></path>
                        <path d="M20.0721221,34.2524272 C20.1230513,34.3472954 20.1560055,34.436172 20.177975,34.5200555 C20.2538696,34.5689875 20.3657143,34.6418863 20.3876838,34.6778363 C20.4216366,34.7677115 20.389681,35.0203606 20.3677115,35.1881276 C20.3607212,35.2430513 20.3537309,35.2959778 20.3487379,35.3479057 C20.531484,35.5306519 20.8190846,35.7423578 20.9738696,35.8202497 L20.6852705,36.3984466 C20.8280721,36.6021637 20.9948405,36.8058807 21.1466297,36.9726491 L21.7138419,36.4563662 C21.3872954,36.0968655 21.1576144,35.7473509 21.1026907,35.5935645 C21.1025908,35.5865742 21.1025908,35.5795839 21.1025908,35.5695978 C21.1025908,35.5026907 21.1185687,35.3748682 21.130552,35.2859917 C21.1495257,35.1352011 21.1704965,34.9744244 21.1704965,34.8156449 C21.1704965,34.6718447 21.1535201,34.529043 21.1035895,34.3982247 C21.0027295,34.1345908 20.7660583,33.9838003 20.5773204,33.8629681 C20.4654757,33.7920666 20.3126879,33.6942025 20.304699,33.6322885 C20.3027018,33.6163107 20.3017032,33.6013315 20.3017032,33.5853537 C20.3017032,33.5084605 20.3256699,33.42957 20.3686103,33.2957559 C20.4315229,33.1010264 20.5144078,32.8433842 20.5144078,32.4669071 C20.5144078,32.4159778 20.5124105,32.3630513 20.5094147,32.3081276 L19.7434785,32.3540638 C19.7624521,32.67362 19.7015368,32.8613592 19.6376255,33.0630791 C19.5777087,33.2498197 19.5088044,33.4625243 19.5417587,33.729154 C19.5437559,33.7421359 19.5457531,33.7541193 19.5477503,33.7671012 C19.7255035,33.8609709 19.933215,33.9957836 20.0720222,34.2534258" id="Shape" fill="#000000" fill-rule="nonzero"></path>
                        <path d="M18.4543689,32.6646325 C18.4673509,32.8144244 18.4433842,32.9202774 18.4164216,33.0441054 C18.3694868,33.2548128 18.3115673,33.5164494 18.4853259,33.8619695 C18.640111,34.1705409 18.905742,34.3033564 19.099473,34.3992233 C19.2562552,34.4771151 19.347129,34.5260472 19.3980583,34.6179196 C19.4609709,34.7337587 19.4539806,34.8136477 19.4419972,34.9464632 C19.4280166,35.1082386 19.4080444,35.3309293 19.5488488,35.5705964 C19.7785298,35.9620527 20.376699,36.3804716 20.6313454,36.5072954 L20.6852705,36.3994452 L20.9738696,35.8212483 C20.818086,35.7433564 20.5304854,35.5326491 20.3487379,35.3489043 C20.2878225,35.2879889 20.2388904,35.2300693 20.2099307,35.1811373 C20.1959501,35.1581692 20.1949515,35.1292094 20.2059362,35.0143689 C20.2169209,34.8905409 20.2309015,34.7207767 20.177975,34.5210541 C20.1560055,34.4371706 20.1230513,34.3472954 20.0721221,34.2534258 C19.9323162,33.9957836 19.7256033,33.8609709 19.5468516,33.7671012 C19.5099029,33.7481276 19.4739528,33.729154 19.44,33.7121775 C19.2762275,33.6312899 19.2063245,33.5913454 19.1703745,33.5184466 C19.1204438,33.4185853 19.1264355,33.3796394 19.1643828,33.2088766 C19.1963384,33.0630791 19.241276,32.8643551 19.2183079,32.5977254 C19.1743689,32.0914286 18.7829126,31.667018 18.4673509,31.326491 L18.2346741,31.065853 L17.6414979,31.5511789 L17.9041331,31.8467684 C18.1398058,32.1014147 18.4323994,32.4189736 18.4543689,32.6636338" id="Shape" fill="#000000" fill-rule="nonzero"></path>
                        <path d="M21.8496533,33.1839112 C21.8496533,33.7730929 21.9914563,34.5649931 22.6824965,34.5649931 C23.3725381,34.5649931 23.5552843,33.672233 23.5552843,33.3067406 C23.5552843,32.9841886 23.0649653,31.618086 22.9461304,30.3808044 C22.7933426,30.3788072 22.6655201,30.3348682 22.5586685,30.2649653 C22.4518169,31.6530374 21.8446602,32.647656 21.8446602,33.1809154" id="Shape" fill="#000000" fill-rule="nonzero"></path>
                        <path d="M32.6646325,22.0194175 C31.1567268,22.2590846 24.2662968,23.4973648 23.6072122,23.6271845 C22.6275728,23.8149237 22.3988904,22.9281553 21.953509,22.7164494 C21.953509,22.7164494 22.6135922,26.5940638 22.6525381,26.882663 C22.7903467,27.9192233 22.0813315,28.4524827 22.0813315,29.2274064 C22.0813315,29.5080166 22.2031623,30.0262968 22.5596671,30.2609709 C22.6665187,30.3308738 22.7943412,30.3738141 22.947129,30.37681 L22.9611096,30.37681 C23.6321775,30.37681 23.7759778,29.705742 23.7759778,29.1944521 C23.7759778,28.4035506 23.3925104,27.9481831 23.3925104,27.7564494 C23.3925104,27.5647157 23.5522885,27.3410264 24.1594452,27.2451595 C24.7666019,27.1492926 32.3580583,25.8311234 33.5563939,25.6373925 C34.7547295,25.4436616 35.6414979,24.4630236 35.4497642,23.4564216 C35.2580305,22.4478225 34.1795284,21.7787517 32.6696255,22.0184189 M33.1889043,24.846491 C32.1663245,24.9104022 23.2327323,25.7732039 23.2327323,25.7732039 L23.0409986,24.510957 C23.0409986,24.510957 31.878724,22.9770874 32.9172816,22.8033287 C33.9558391,22.6275728 34.6908183,23.0429958 34.6908183,23.698086 C34.6908183,24.3531761 34.211484,24.784577 33.1928988,24.8484882" id="Shape" fill="#000000" fill-rule="nonzero"></path>
                        <path d="M49.1117892,29.8785021 C48.9050763,30.9450208 48.4606935,31.9685992 48.4606935,32.2492094 C48.4606935,32.6147018 48.5695423,33.5274341 49.2595839,33.5274341 C49.9496255,33.5274341 50.1683218,32.7155617 50.1683218,32.1293759 C50.1683218,31.6640222 49.7608877,30.911068 49.5901248,29.8225798 C49.4902635,29.8665187 49.3764216,29.8924827 49.2456033,29.8924827 C49.1986685,29.8924827 49.1557282,29.8874896 49.1137864,29.8795007" id="Shape" fill="#000000" fill-rule="nonzero"></path>
                        <path d="M38.0171983,25.4147018 C39.215534,25.6064355 47.6138696,27.0054924 48.2230236,27.1023578 C48.5695423,27.1572816 48.8531484,27.3859639 48.8531484,27.4808322 C48.8531484,27.5757004 48.482663,27.930208 48.482663,28.552344 C48.482663,29.0276838 48.5565603,29.7766436 49.1077947,29.8795007 C49.1487379,29.8874896 49.1926768,29.8924827 49.2396117,29.8924827 C49.37043,29.8924827 49.4842718,29.8675173 49.5841331,29.8225798 C49.9975589,29.6398336 50.1613315,29.1245492 50.1613315,28.6552011 C50.1613315,27.5597226 49.5921221,27.775423 49.728932,26.7378641 C49.7668793,26.4502635 50.320111,22.6894868 50.320111,22.6894868 C49.8727323,22.8971983 49.7538974,23.6701248 48.774258,23.4823856 C48.1081831,23.3545631 40.4058807,21.9335368 38.897975,21.6938696 C37.3900693,21.4542025 36.3654924,22.2391123 36.1717614,23.2457143 C35.9780305,24.2523162 36.8188627,25.2219695 38.0171983,25.4137032 M38.9159501,22.4428294 C39.9555062,22.6135922 49.3115118,24.250319 49.3115118,24.250319 L49.1197781,25.5125659 C49.1197781,25.5125659 39.4432178,24.665742 38.4246325,24.6018308 C37.4020527,24.5379196 36.9386963,24.1864078 36.9386963,23.5313176 C36.9386963,22.8762275 37.7535645,22.2530929 38.9199445,22.4448266" id="Shape" fill="#000000" fill-rule="nonzero"></path>
                        <path d="M52.4970874,31.0768377 C52.5020804,31.1846879 52.5050763,31.2436061 52.4461581,31.3764216 C52.3343135,31.6240777 52.1395839,31.9326491 51.8469903,32.002552 L52.0217476,32.7495146 C52.3542857,32.6716227 52.8196394,32.4249653 53.1501803,31.6909847 C53.2859917,31.3914008 53.2750069,31.1816921 53.2680166,31.0378918 C53.262025,30.9180583 53.2590291,30.8681276 53.3608877,30.7073509 C53.4337864,30.593509 53.4537587,30.588516 53.540638,30.5655479 C53.7373648,30.51362 53.9630513,30.4287379 54.1577809,30.0662413 C54.379473,29.6528155 54.3075728,29.3092926 54.2556449,29.0576422 C54.2276838,28.9198336 54.2047157,28.8119834 54.2226907,28.6991401 C54.2496533,28.5273786 54.3704854,28.3955617 54.601165,28.1588904 C54.7259917,28.0300693 54.8677947,27.8842718 55.011595,27.7015257 L54.4124272,27.2271845 C54.2945908,27.377975 54.1727601,27.5028017 54.0549237,27.6236338 C53.7992788,27.8862691 53.5356449,28.1578918 53.4687379,28.5783079 C53.4287933,28.8289598 53.4727323,29.0416644 53.5086824,29.2124272 C53.5546186,29.4361165 53.571595,29.5409709 53.4857143,29.7017476 C53.4337864,29.7996117 53.4317892,29.7996117 53.3499029,29.8215811 C53.1571706,29.8725104 52.9324827,29.9543967 52.7167822,30.2949237 C52.5020804,30.6334535 52.4940915,30.8571429 52.5050763,31.0748405" id="Shape" fill="#000000" fill-rule="nonzero"></path>
                        <path d="M51.1889043,32.3750347 C51.5563939,32.051484 51.6702358,31.9346463 51.8380028,31.3953953 C51.9468516,31.0448821 51.9218863,30.8132039 51.901914,30.6274619 C51.8859362,30.4796671 51.8749515,30.3728155 51.9248821,30.1820804 C51.950846,30.0842164 51.9598336,30.0802219 52.0666852,30.0223024 C52.2304577,29.9344244 52.5040777,29.7876283 52.6249098,29.3122885 C52.7357559,28.8758946 52.6099307,28.601276 52.5180583,28.4005548 C52.4461581,28.2447712 52.4032178,28.1499029 52.441165,27.9451872 L51.6862136,27.8073786 C51.6063245,28.2497642 51.7301526,28.521387 51.8210264,28.7191123 C51.8929265,28.8758946 51.9258807,28.9477947 51.8819417,29.1185576 C51.8439945,29.2673509 51.8170319,29.2813315 51.7041886,29.3422469 C51.5514008,29.4241331 51.2947573,29.5619417 51.1829126,29.9803606 C51.0950347,30.3089043 51.1190014,30.5285992 51.137975,30.7053537 C51.1549515,30.8611373 51.1659362,30.9649931 51.1040222,31.1627184 C50.9931761,31.5192233 50.9811928,31.530208 50.6806103,31.7938419 L50.5018585,31.9526214 L51.0151456,32.5228294 L51.1869071,32.3700416" id="Shape" fill="#000000" fill-rule="nonzero"></path>
                        <path d="M45.5067961,29.8185853 C45.5936755,30.2030513 45.8672954,30.3718169 46.067018,30.4956449 C46.2487656,30.6084882 46.3106796,30.6544244 46.3356449,30.7752566 C46.3755895,30.9629958 46.3576144,31.0169209 46.3306519,31.09681 C46.2767268,31.2565881 46.2357836,31.4243551 46.3176699,31.7139528 C46.4614702,32.2232455 46.6152566,32.3890153 47.1265465,32.8993065 L47.6687933,32.3570596 C47.184466,31.8727323 47.1445215,31.81681 47.0546463,31.5032455 C47.0306796,31.419362 47.0326768,31.4133703 47.0566436,31.3404716 C47.1125659,31.1727046 47.1614979,30.977975 47.0846047,30.6154785 C46.9887379,30.1641054 46.6751734,29.9713731 46.4684605,29.8435506 C46.3116782,29.7466852 46.2687379,29.7117337 46.2537587,29.6508183 C46.2267961,29.5289875 46.2557559,29.4361165 46.3206657,29.2533703 C46.3985576,29.0316782 46.4964216,28.756061 46.4504854,28.3616089 L45.6885437,28.451484 C45.7145076,28.6681831 45.6625798,28.8139806 45.5976699,28.9977254 C45.5227739,29.21043 45.4289043,29.4770596 45.5057975,29.8195839" id="Shape" fill="#000000" fill-rule="nonzero"></path>
                        <path d="M44.9875173,29.6188627 C44.9875173,29.4820527 44.9665465,29.3232732 44.9026352,29.1335368 C44.7248821,28.6112621 44.5401387,28.4095423 44.3264355,28.1768655 L44.1117337,27.9332039 L43.5215534,28.4225243 L43.7622191,28.6951456 C43.9549515,28.9048544 44.0518169,29.0107074 44.1776422,29.3801942 C44.2435506,29.5749237 44.2235784,29.6767822 44.1946186,29.8305687 C44.1566713,30.028294 44.1037448,30.2989182 44.273509,30.681387 C44.4612483,31.1028017 44.7418585,31.2066574 44.9285992,31.2755617 C45.0524272,31.3214979 45.0743967,31.3294868 45.1183356,31.4223578 C45.192233,31.5821359 45.1832455,31.6280721 45.1652705,31.710957 C45.1423024,31.8208044 45.1033564,32.0045492 45.210208,32.245215 C45.347018,32.5567822 45.7334813,33.2917614 46.3596117,33.3836338 L46.4714563,32.6246879 C46.3176699,32.6017198 46.0720111,32.3001387 45.912233,31.9366436 L45.9062413,31.9186685 L45.9162275,31.8677393 C45.9322053,31.7918447 45.9461859,31.710957 45.9461859,31.6190846 C45.9461859,31.4802774 45.9152288,31.3155062 45.8153675,31.0988072 C45.638613,30.7183356 45.3719834,30.619473 45.1952288,30.5545631 C45.0634119,30.5056311 45.0324549,30.4946463 44.9765326,30.3688211 C44.9385853,30.2829404 44.9246047,30.222025 44.9246047,30.160111 C44.9246047,30.1051872 44.9355895,30.0502635 44.94957,29.9753675 C44.9685437,29.8765049 44.9915118,29.7596671 44.9915118,29.6178641" id="Shape" fill="#000000" fill-rule="nonzero"></path>
                        <path d="M50.0005548,34.0926491 C49.2485992,34.7008044 47.5649376,34.7477393 46.6751734,33.9368655 L46.4874341,33.7661026 L46.2567545,33.8729542 C45.9142302,34.0317337 45.4578641,34.0447157 45.0913731,34.0547018 C44.6250208,34.0676838 44.2565326,34.0786685 44.0677947,34.3732594 C43.9309847,34.5869626 43.9439667,34.882552 44.1047434,35.1711512 C44.1307074,35.2190846 44.1616644,35.267018 44.1956172,35.3149515 L45.868294,35.3149515 C45.2461581,35.3149515 44.9196117,35.0213592 44.7987795,34.8356172 C44.8966436,34.8286269 45.0134813,34.8236338 45.1133426,34.8216366 C45.4808322,34.8106519 45.9232178,34.7906796 46.3426352,34.652871 C46.8,35.001387 47.3582247,35.2011096 47.9274341,35.2770042 C48.3398613,34.7916782 49.0358946,34.6139251 49.4433287,34.6139251 L49.4433287,35.1881276 C49.7608877,35.1052427 50.0534813,34.9824133 50.2981415,34.8236338 C50.7055756,34.9993897 51.2767822,35.3459085 51.6742302,35.5865742 C52.0197503,35.7962829 52.1905132,35.8991401 52.3043551,35.9420804 C52.6518724,36.0758946 54.1018585,36.1947295 54.9996117,36.1947295 L54.9996117,35.4277947 C53.9850208,35.4277947 52.7707074,35.2939806 52.5829681,35.2260749 C52.5220527,35.2011096 52.2743967,35.0513176 52.0766713,34.9304854 C51.5603883,34.6169209 50.8533703,34.1875173 50.369043,34.0217476 L50.170319,33.9558391 L50.0075451,34.087656" id="Shape" fill="#000000" fill-rule="nonzero"></path>
                        <path d="M45.8662968,35.310957 L43.0052705,35.310957 C41.7170596,35.310957 41.579251,36.0998613 41.579251,36.3764771 C41.579251,36.4533703 41.5882386,36.5512344 41.6152011,36.6560888 L42.7775867,36.6560888 C42.436061,36.6560888 42.3272122,36.5222746 42.3272122,36.379473 C42.3272122,36.2366713 42.4580305,36.079889 43.0052705,36.079889 L47.5978918,36.079889 C47.6228571,35.7683218 47.7337032,35.5146741 47.8934813,35.3129542 L45.8662968,35.3129542" id="Shape" fill="#000000" fill-rule="nonzero"></path>
                        <path d="M48.3728155,36.079889 L48.482663,36.079889 L50.7754785,35.5446325 L49.4672954,35.3129542 L49.4433287,35.3129542 L49.4433287,35.3788627 C49.4333426,35.3788627 48.4836616,35.4218031 48.3718169,36.0778918" id="Shape" fill="#000000" fill-rule="nonzero"></path>
                        <path d="M41.1728155,36.6590846 C40.4338419,36.6590846 39.9365326,37.2392788 39.9365326,37.7815257 C39.9365326,38.2988072 40.3958946,38.9229404 41.2107628,38.9229404 L41.4494313,38.9229404 C41.5043551,38.6283495 41.7390291,38.208932 42.6128155,38.1609986 L42.6128155,38.1560055 L41.2147573,38.1560055 C40.9271567,38.1560055 40.7154508,37.8743967 40.7074619,37.780527 C40.7074619,37.6806657 40.8472677,37.4260194 41.17681,37.4260194 L46.1588904,37.4260194 L46.1588904,36.6590846 L41.17681,36.6590846" id="Shape" fill="#000000" fill-rule="nonzero"></path>
                        <path d="M41.4424411,38.9159501 C41.4304577,38.9788627 41.4274619,39.034785 41.4274619,39.0817198 C41.4274619,39.710846 41.9816921,40.2231345 42.9253814,40.2231345 L42.9433564,40.2231345 C43.0871567,39.7977254 43.6114286,39.4981415 44.3084605,39.4601942 L44.3084605,39.4552011 L42.9253814,39.4552011 C42.4500416,39.4552011 42.1904022,39.2075451 42.1904022,39.0807212 C42.1904022,38.9718724 42.4839945,38.9149515 42.7735922,38.9149515 L46.1459085,38.9149515 L46.1459085,38.1480166 L42.7735922,38.1480166 C42.7136755,38.1480166 42.6577531,38.1500139 42.6028294,38.1530097 C41.729043,38.2009431 41.4943689,38.6203606 41.4394452,38.9149515" id="Shape" fill="#000000" fill-rule="nonzero"></path>
                        <path d="M42.9503467,40.2241331 C42.9243828,40.3010264 42.9094036,40.381914 42.9094036,40.4657975 C42.9094036,40.947129 43.3408044,41.4644105 44.3034674,41.5492926 C45.0004993,41.6072122 48.0083218,41.7020804 48.5595562,41.7020804 C49.008932,41.7020804 50.8923162,41.641165 51.9069071,41.3455756 C52.206491,41.2576976 52.4611373,41.1398613 52.7057975,41.0260194 C53.2330652,40.7803606 53.7783079,40.5267129 54.962663,40.5267129 L54.962663,39.7597781 C53.6075451,39.7597781 52.9554508,40.0633564 52.3822469,40.3299861 C52.1535645,40.4358391 51.9378641,40.536699 51.6922053,40.6085992 C50.8403883,40.8572538 49.0978086,40.934147 48.5595562,40.934147 C48.0502635,40.934147 45.0444383,40.8402774 44.36638,40.7843551 C43.8790569,40.7434119 43.6763384,40.5566713 43.6763384,40.4657975 C43.6933148,40.4188627 43.9279889,40.2241331 44.4672399,40.2241331 L47.5549515,40.2241331 L46.8159778,39.4571983 L44.4672399,39.4571983 C44.4163107,39.4571983 44.3653814,39.4591956 44.3154508,39.4621914 C43.6174202,39.5001387 43.094147,39.798724 42.9503467,40.2241331" id="Shape" fill="#000000" fill-rule="nonzero"></path>
                        <path d="M47.9234397,35.2710125 C47.9124549,35.2839945 47.9014702,35.2959778 47.891484,35.3089598 C47.731706,35.5106796 47.6208599,35.7643273 47.5958946,36.0758946 C47.5928988,36.118835 47.5899029,36.1617753 47.5899029,36.2067129 C47.5899029,36.9197226 47.9653814,38.1639945 50.4818863,38.482552 L50.5777531,37.7216089 C49.7479057,37.6167545 48.3608322,37.2802219 48.3608322,36.2067129 C48.3608322,36.1607767 48.3648266,36.1168377 48.3718169,36.0758946 C48.4846602,35.4178086 49.4333426,35.3768655 49.4433287,35.3768655 L49.4433287,34.6099307 C49.0368932,34.6099307 48.3348682,34.7876838 47.9274341,35.2720111" id="Shape" fill="#000000" fill-rule="nonzero"></path>
                    </g>
                </g>
            </g>
        </g>
    </g>
</svg>