<?xml version="1.0" encoding="UTF-8" standalone="no"?>
<svg width="72px" height="72px" viewBox="0 0 72 72" version="1.1" xmlns="http://www.w3.org/2000/svg" xmlns:xlink="http://www.w3.org/1999/xlink">
    <!-- Generator: Sketch 42 (36781) - http://www.bohemiancoding.com/sketch -->
    <title>ghs-pictogram-flame</title>
    <desc>Created with Sketch.</desc>
    <defs></defs>
    <g id="Style-Guide-und-Materialien" stroke="none" stroke-width="1" fill="none" fill-rule="evenodd">
        <g id="Materialien" transform="translate(-486.000000, -83.000000)">
            <g id="GHS-Pictograms" transform="translate(118.000000, 83.000000)">
                <g id="Pictogram/GHS/Flame" transform="translate(368.000000, 0.000000)">
                    <g id="GHS-pictogram-flamme">
                        <path d="M2.45094159,36.0218057 L35.9783962,69.5492622 L69.5114425,36.0162159 C58.3301867,24.8477079 47.1710248,13.6570692 35.9839873,2.49435225 L2.45094159,36.0218057 Z" id="Shape" fill="#FFFFFF" fill-rule="nonzero"></path>
                        <path d="M17.9884965,18.0333117 L0,36.021807 L17.9896965,54.0115035 L35.978193,72 L53.9702883,54.0079035 L71.9623848,36.0158083 L53.9762883,18.0297117 C44.0845346,8.1379586 35.9877917,0.0436152381 35.9841917,0.0436152381 C35.9805854,0.0436152381 27.8826489,8.13915848 17.9884965,18.0333117 Z M51.1265892,20.8794095 L66.2629879,36.0158083 L51.1205905,51.1582057 L35.976993,66.3018032 L20.8417943,51.1582057 L5.70659606,36.0146083 L20.8429943,20.8782108 C29.167713,12.5534908 35.9805917,5.74301206 35.9841917,5.74301206 C35.9877854,5.74301206 42.8018705,12.5546908 51.1265892,20.8794095 L51.1265892,20.8794095 Z" id="Shape" fill="#FF0000" fill-rule="nonzero"></path>
                        <path d="M36.0031746,14.6507937 C33.7706199,18.9148658 36.490881,21.3218672 33.4920635,27.6031746 C31.9010011,26.3319538 32.8233915,21.5812043 29.6634921,21.5015873 C30.1497864,22.9604714 29.7858103,23.5271487 29.7047619,24.0539683 C29.3904366,26.0970809 28.6610062,27.9229501 30.0793651,30.6380952 C27.9005521,29.5795109 27.8643891,27.6371779 26.0222222,26.4190476 C26.386943,28.4858006 25.5086466,32.6766903 27.9555556,36.6920635 C25.7751467,36.4775995 25.0520279,35.6394108 22.6920635,33.3777778 C25.1550212,46.136703 26.9873686,46.4951233 36.0190476,47.2190476 C35.338559,47.1392731 30.7878827,46.4125267 29.1396825,41.168254 C29.0461328,39.8697102 28.9947764,42.3094278 33.3714286,42.3904762 C30.6002062,38.0016213 31.3551685,38.8324124 31.6793651,36.2793651 C32.8265549,38.0266098 31.8215263,38.1794042 35.0634921,39.4761905 C34.0356084,36.2104676 36.6498834,33.9758791 36.0825397,30.247619 C36.7988897,31.884994 39.3469704,31.6271228 39.2253968,39.4888889 C41.3351975,37.1350827 41.5868851,38.7642565 42.6,36.1301587 C42.6586789,37.5966232 43.3023167,39.4225564 40.4349206,42.4285714 C41.1643632,42.6311944 42.3857239,42.7881041 44.3714286,41.4507937 C42.4379926,43.6420206 44.1854029,43.693695 39.2952381,47.2793651 C45.454973,47.3604135 49.5006283,43.482883 49.3555556,34.9619048 C49.1934578,35.6913473 49.011903,37.1478806 45.6888889,37.5936508 C47.7704036,35.5253008 48.8551578,31.4072381 47.1936508,28.0031746 C46.6086563,28.5472488 45.6994377,31.0769067 43.5111111,31.8063492 C44.6210895,29.9852881 44.3714286,27.6285714 44.3714286,27.6285714 C44.3714286,27.6285714 44.6546052,24.4455883 42.7746032,21.9873016 C42.2477836,25.8371352 42.2917923,27.7730844 39.8603175,28.3809524 C40.2516114,26.1088081 40.3236734,25.0507144 39.1079365,22.4571429 C37.8381613,19.748291 36.3678954,17.0822674 36.0031746,14.6507937 Z M25.831746,49.4190476 L25.831746,50.5333333 L25.831746,51.6507937 L36.6730159,51.6507937 L47.5142857,51.6507937 L47.5111162,50.5365079 L47.5079467,49.4253968 L36.6730159,49.4222222 L25.831746,49.4190476 Z" id="Shape" fill="#000000" fill-rule="nonzero"></path>
                    </g>
                </g>
            </g>
        </g>
    </g>
</svg>