<?xml version="1.0" encoding="UTF-8" standalone="no"?>
<svg width="72px" height="72px" viewBox="0 0 72 72" version="1.1" xmlns="http://www.w3.org/2000/svg" xmlns:xlink="http://www.w3.org/1999/xlink">
    <!-- Generator: Sketch 42 (36781) - http://www.bohemiancoding.com/sketch -->
    <title>ghs-pictogram-skull-and-bones</title>
    <desc>Created with Sketch.</desc>
    <defs></defs>
    <g id="Style-Guide-und-Materialien" stroke="none" stroke-width="1" fill="none" fill-rule="evenodd">
        <g id="Materialien" transform="translate(-394.000000, -175.000000)">
            <g id="GHS-Pictograms" transform="translate(118.000000, 83.000000)">
                <g id="Pictogram/GHS/SkullAndBones" transform="translate(276.000000, 92.000000)">
                    <g id="GHS-pictogram-skull">
                        <polygon id="Shape" fill="#FF0000" fill-rule="nonzero" points="36 71.9400832 71.9500693 35.9900139 36 0.0399445215 0.0499306519 35.9900139"></polygon>
                        <polygon id="Shape" fill="#FFFFFF" fill-rule="nonzero" points="36 66.2380028 5.76199723 36 36 5.76199723 66.2380028 36"></polygon>
                        <path d="M35.4108183,35.6704577 C36.2326768,35.6704577 35.9550624,35.3379196 36.6570874,35.3379196 C37.2292926,35.3379196 37.0355617,35.6614702 37.811484,35.6614702 C38.531484,35.6614702 38.7072399,35.1172261 38.7072399,34.895534 C38.7072399,34.5540083 38.3197781,34.3343135 38.1440222,33.870957 C37.9682663,33.4095978 37.6267406,31.7019695 36.5841886,31.7019695 C36.2007212,31.7019695 35.9750347,31.8587517 35.6884327,32.2002774 C35.218086,32.7545076 35.1801387,33.685215 34.8895423,34.0467129 C34.6029404,34.3972261 34.4920943,34.7737032 34.4920943,34.97043 C34.4920943,35.1831345 34.5939528,35.6694591 35.4158114,35.6694591 L35.4108183,35.6704577 Z M27.3719834,41.512344 L26.5830791,41.8858252 C25.7931761,42.2662968 24.8075451,43.0611928 24.6028294,44.6919279 C24.5688766,44.9595562 23.9647157,45.66957 23.3455756,45.66957 C22.965104,45.66957 22.5147295,45.4179196 22.4528155,45.0434397 C22.3449653,44.4003329 21.8586408,42.0925381 21.8376699,41.9946741 C21.7777531,41.7100693 21.4981415,41.5273232 21.2125381,41.5882386 C20.9269348,41.649154 20.7451872,41.927767 20.8061026,42.2133703 C20.8062025,42.219362 20.8819972,42.5778641 20.8819972,42.5778641 C19.9652705,42.1404716 19.9273232,42.0615811 19.9273232,41.7460194 C19.9273232,41.3565603 20.8260749,40.8602497 21.5350902,40.8602497 C22.1312621,40.8602497 22.5876283,41.0310125 23.0300139,41.1957836 C23.4294591,41.3455756 23.8418863,41.499362 24.3082386,41.499362 C24.9793065,41.499362 25.1710402,41.4314563 25.4796117,41.2646879 L25.739251,41.1378641 C26.1456865,40.9671012 29.2983079,39.4621914 30.6873786,38.7981137 C30.8811096,39.0757282 31.1127878,39.3543412 31.3804161,39.6219695 L27.3719834,41.512344 Z M31.0508738,34.4291817 C32.2781692,35.1911234 32.2591956,35.1571706 32.2651872,35.6375035 C32.250208,35.7673232 32.245215,35.9810264 32.245215,36.3774757 C32.245215,37.6856588 34.7916782,38.7841331 36.3914563,38.7841331 C38.1659917,38.7841331 40.5157282,37.5857975 40.5157282,36.3385298 L40.5157282,35.6654646 C40.5157282,35.1342025 40.5716505,35.0852705 41.5972261,34.4831068 L41.5972261,36.9786408 C41.5972261,37.6766713 40.6405548,39.1666019 38.9119556,40.0363939 L38.8560333,40.0643551 C38.0191956,40.4847712 36.9786408,40.9631068 36.5492372,40.9631068 C36.1527878,40.9631068 34.8106519,40.5716505 33.7431345,40.0333981 C32.0135368,39.1646047 31.0578641,37.6736755 31.0578641,36.9756449 L31.0508738,34.4291817 Z M20.2658627,30.3448544 C20.2638627,30.3449544 20.2618627,30.3478544 20.2588627,30.3488544 C20.2608627,30.3487544 20.2628627,30.3458544 20.2658627,30.3448544 L20.2658627,30.3448544 Z M51.3127323,29.3562275 C51.5454092,29.3562275 51.6462691,29.4321221 51.7021914,29.4900416 C52.0417198,29.8405548 52.0087656,30.8661304 51.9857975,31.6150902 L51.9728155,32.2092649 C51.9668239,32.5008599 52.1975035,32.7295423 52.4880999,32.7365326 C52.7786963,32.7425243 53.0203606,32.5008599 53.0273509,32.2092649 L53.032344,31.9965603 C53.0623024,32.077448 53.0762829,32.1463523 53.0762829,32.1912899 L53.0762829,33.2058807 C53.0762829,33.4934813 52.9923994,33.8370042 52.5949515,33.8370042 C52.268405,33.8370042 51.8499861,33.6332871 51.4465465,33.4375589 C50.9811928,33.2108738 50.5378086,32.996172 50.0914286,32.996172 L50.015534,32.9931761 C49.7528988,32.9801942 49.2056588,32.9552288 48.4347295,33.3157282 L48.4197503,33.3227184 L42.6527601,36.2486546 L42.6527601,34.7826907 C43.5055756,34.3932316 46.7770319,32.8933148 47.5859085,32.4758946 C48.4976422,32.0065465 49.1936755,31.0029404 49.6031068,30.4027739 L49.7618863,30.1760888 C50.0365049,29.798613 50.6077115,29.3582247 51.3157282,29.3582247 L51.3127323,29.3562275 Z M24.709681,33.3207212 L24.7016921,33.3177254 C23.9307628,32.9562275 23.3835229,32.9821914 23.1208877,32.9951734 L23.0449931,32.9981692 C22.5956172,32.9981692 22.1552288,33.212871 21.6898752,33.4395562 C21.29043,33.6362829 20.8690153,33.8390014 20.5414702,33.8390014 C20.1430236,33.8390014 20.0601387,33.4964771 20.0601387,33.2078779 L20.0601387,32.1932871 C20.0601387,32.1483495 20.0741193,32.0794452 20.1040777,31.9985576 L20.1090707,32.2102635 C20.1150624,32.5018585 20.3567268,32.7435229 20.6483218,32.7375312 C20.9389182,32.7315395 21.1705964,32.5018585 21.1636061,32.2102635 L21.1506241,31.6160888 C21.1266574,30.867129 21.0947018,29.8415534 21.4332316,29.4910402 C21.489154,29.4341193 21.5900139,29.3572261 21.8226907,29.3572261 C22.5307074,29.3572261 23.1029126,29.7976144 23.3775312,30.1750902 L23.5363107,30.4017753 C23.9497365,31.0009431 24.6447712,32.0095423 25.553509,32.474896 C26.260527,32.8393897 28.7790291,33.9957836 30.0053259,34.5590014 L30.0053259,36.0019972 L24.709681,33.3207212 Z M36.4034397,16.8635784 C39.3353675,16.8635784 40.7593897,18.0868793 42.5648821,19.7276006 L43.5215534,20.5854092 L43.8780583,20.8949792 C45.024466,21.8885992 46.1079612,22.8272954 46.1079612,23.3835229 C46.1079612,24.0725659 45.8672954,24.7596117 45.540749,25.4007212 C45.5786963,25.1660472 45.5806935,25.0112621 45.5806935,24.7126768 C45.5806935,23.5772538 45.267129,23.0879334 44.1077393,21.8756172 L43.3457975,22.6046047 C44.4322885,23.7400277 44.5261581,23.9816921 44.5261581,24.7116782 C44.5261581,25.1660472 44.5261581,25.1660472 44.2954785,26.1896255 L43.9899029,27.5617198 L44.0248544,27.6865465 C44.0288488,27.6995284 44.3833564,29.0027184 44.3833564,30.252982 C44.3833564,31.561165 43.584466,32.0484882 42.5758669,32.6696255 L42.2583079,32.8653537 L41.1708183,33.5204438 C40.0224133,34.1945076 39.450208,34.4920943 39.450208,35.6694591 L39.450208,36.3425243 C39.450208,36.732982 37.974258,37.7335922 36.4014424,37.7335922 C34.957448,37.7335922 33.367656,36.7349792 33.3097365,36.371484 C33.3097365,35.889154 33.3307074,35.6804438 33.3307074,35.6804438 C33.3307074,34.5260472 32.771484,34.2014979 31.6560333,33.5543967 C31.3454646,33.3746463 30.96,33.1499584 30.5056311,32.8653537 L30.1880721,32.6696255 C29.1754785,32.0504854 28.4524827,31.6989736 28.4524827,30.252982 C28.4524827,28.7320943 28.8149792,28.1888488 28.8149792,27.7195007 C28.8149792,27.2501526 28.3086824,25.4226907 28.3086824,25.1360888 C28.3086824,25.0991401 28.3126768,24.7905687 28.3126768,24.7905687 C28.3126768,24.1065187 28.3995562,23.5353121 29.4570874,22.5956172 C29.5429681,22.5197226 29.6737864,22.2870458 29.568932,22.1582247 C29.4640777,22.0294036 29.4221359,21.9754785 29.3003051,21.8316782 C29.2393897,21.7597781 29.1285437,21.7318169 29.0216921,21.7308183 C28.9148405,21.7308183 28.8109847,21.7587795 28.7640499,21.8007212 C27.5127878,22.9121775 27.2561442,23.7540083 27.2561442,24.7905687 C27.2561442,24.7905687 27.2521498,25.0991401 27.2521498,25.1450763 C27.2521498,25.4266852 27.2401664,25.2848821 27.3849653,25.8770596 C26.9335922,25.1121221 26.5541193,24.2513176 26.5541193,23.3855201 C26.5541193,22.8472677 27.5856865,21.9125659 28.6781692,20.923939 L29.1555062,20.4905409 C29.532982,20.1460194 29.8645215,19.824466 30.178086,19.5128988 C30.9010818,18.8028849 31.4712899,18.242663 32.1353675,17.9051318 C33.6322885,17.1461859 34.9914008,16.8665742 36.4114286,16.8665742 L36.4034397,16.8635784 Z M30.1900693,37.8873786 C28.3606103,38.7621637 25.6863245,40.0373925 25.3398058,40.1821914 L24.988294,40.3529542 C24.8355062,40.4358391 24.7885714,40.4598058 24.3182247,40.4598058 C24.0436061,40.4598058 23.7500139,40.3499584 23.4094868,40.2231345 C22.929154,40.0433842 22.3319834,39.8236893 21.5450763,39.8236893 C20.4605825,39.8236893 18.8847712,40.5796394 18.8847712,41.7639945 C18.8847712,42.8185298 19.5608322,43.1350902 20.6802774,43.6613592 L21.1616089,43.8900416 C21.2744521,44.4432732 21.3823024,44.9835229 21.4242441,45.236172 C21.5810264,46.1788627 22.5327046,46.7440777 23.3575589,46.7440777 C24.5359223,46.7440777 25.5644938,45.5906796 25.6643551,44.8467129 C25.78319,43.9010264 26.2375589,43.2499307 27.0544244,42.8574757 L27.832344,42.4889875 L32.276172,40.3968932 C32.580749,40.6155895 32.9112899,40.8193065 33.2667961,40.996061 C34.1365881,41.4334535 35.783301,42.0805548 36.5502358,42.0805548 C37.2312899,42.0805548 38.2478779,41.5672677 39.3563384,41.0100416 C39.8316782,40.7713731 40.2391123,40.5107351 40.6036061,40.2241331 L46.0740083,42.8554785 C46.8908738,43.248932 47.3452427,43.8990291 47.4640777,44.8447157 C47.5579473,45.5926768 48.5895146,46.7420804 49.7708738,46.7420804 C50.5977254,46.7420804 51.5464078,46.1788627 51.7041886,45.2341748 C51.7461304,44.9815257 51.8539806,44.441276 51.9668239,43.8880444 L51.919889,43.9100139 L51.9668239,43.8880444 L52.449154,43.659362 C53.5685992,43.1330929 54.2446602,42.815534 54.2446602,41.7619972 C54.2446602,40.5776422 52.6698474,39.8216921 51.5843551,39.8216921 C50.797448,39.8216921 50.2002774,40.0453814 49.7199445,40.2211373 C49.3804161,40.3479612 49.0868239,40.4578086 48.8112067,40.4578086 C48.3408599,40.4578086 48.2939251,40.4328433 48.1411373,40.350957 L47.7896255,40.1801942 C47.4191401,40.0244105 44.3404161,38.5564494 42.5309293,37.6906519 C42.5558946,37.6147573 42.5768655,37.5398613 42.5938419,37.4659639 C43.8331207,36.838835 48.8651318,34.2893759 48.885104,34.2793897 C49.4183634,34.0307351 49.7479057,34.0457143 49.9666019,34.0557004 L50.0924272,34.0596949 C50.2981415,34.0596949 50.647656,34.2294591 50.9851872,34.3942302 C51.4725104,34.6319001 52.025742,34.9015257 52.5929542,34.9015257 C53.5016921,34.9015257 54.1288211,34.2084882 54.1288211,33.2158669 L54.1288211,32.201276 C54.1288211,31.6500416 53.7483495,30.8821082 53.0403329,30.4527046 C53.001387,29.7976144 52.8635784,29.1834674 52.4591401,28.7660472 C52.1665465,28.4664632 51.7810818,28.3116782 51.3127323,28.3116782 C50.2042718,28.3116782 49.3464632,28.9587795 48.9060749,29.563939 L48.7323162,29.8125936 C48.3977809,30.2969209 47.7766436,31.1986685 47.1005825,31.5461859 C46.614258,31.7968377 45.1822469,32.4629126 43.9599445,33.0261304 C44.7538419,32.4469348 45.4328988,31.6690153 45.4328988,30.2599723 C45.4328988,29.3791956 45.2821082,28.5024133 45.1662691,27.9631623 L45.3560055,27.6815534 C46.1159501,26.5840777 47.153509,25.0851595 47.153509,23.3945076 C47.153509,22.3569487 46.0650208,21.414258 44.5591123,20.1090707 L44.2046047,19.8014979 L43.2659085,18.9596671 C41.4484327,17.3079612 39.7408044,15.7441331 36.397448,15.7441331 C34.8276283,15.7441331 33.2717892,16.1435784 31.6450485,16.97043 C30.8351734,17.3808599 30.1820804,18.0229681 29.4281276,18.7659362 C29.1175589,19.0705132 28.7970042,19.3860749 28.433509,19.7176144 L27.9591678,20.1490153 C26.5251595,21.4472122 25.4885992,22.3859085 25.4885992,23.3925104 C25.4885992,25.0791678 26.529154,26.5820804 27.2861026,27.6795562 L27.4209154,27.8792788 C27.3130652,28.6512067 27.2012205,29.6707906 27.2012205,30.3857975 C27.2012205,31.3694313 27.6545908,32.0624688 28.2467684,32.6027184 C27.2990846,32.1623301 26.3913454,31.7359223 26.0218585,31.5461859 C25.3457975,31.1986685 24.7246602,30.2969209 24.3901248,29.8125936 L24.2163662,29.563939 C23.7759778,28.954785 22.9081831,28.3116782 21.8097087,28.3116782 C21.3413592,28.3116782 20.954896,28.464466 20.663301,28.7660472 C20.2588627,29.1834674 20.1200555,29.7976144 20.0821082,30.4537032 C20.0841054,30.4536033 20.0861026,30.451706 20.0890985,30.4497087 C20.0871012,30.4498086 20.085104,30.451706 20.0821082,30.4537032 C19.3740915,30.8831068 18.9926214,31.6510402 18.9926214,32.2022746 L18.9926214,33.2168655 C18.9926214,34.2094868 19.6247434,34.9025243 20.5294868,34.9025243 C21.0996949,34.9025243 21.6519279,34.6328988 22.1372538,34.3952288 C22.474785,34.2304577 22.823301,34.0606935 23.0300139,34.0606935 L23.1558391,34.056699 C23.3745354,34.0467129 23.7040777,34.0307351 24.237337,34.2803883 C24.2563107,34.2893759 28.2517614,36.3155617 30.0023301,37.1963384 L30.1900693,37.8873786 Z M42.0655756,38.6343412 C43.1410818,39.1486269 46.9378086,40.9631068 47.3781969,41.150846 L47.6378363,41.2776699 C47.9454092,41.4444383 48.1371429,41.512344 48.8092094,41.512344 C49.2745631,41.512344 49.6879889,41.3575589 50.0874341,41.2087656 C50.5288211,41.0439945 50.9861859,40.8732316 51.5823578,40.8732316 C52.2913731,40.8732316 53.1901248,41.3695423 53.1901248,41.7590014 C53.1901248,42.0745631 53.1521775,42.1534535 52.2354508,42.590846 C52.281387,42.3731484 52.3103467,42.232344 52.312344,42.2273509 C52.3722607,41.9427462 52.1905132,41.6631345 51.9049098,41.6022191 C51.6203051,41.5423024 51.3406935,41.7240499 51.2807767,42.0086546 C51.2598058,42.1065187 50.7734813,44.4153121 50.6656311,45.0574202 C50.6027184,45.4319001 50.1533426,45.682552 49.772871,45.682552 C49.1537309,45.682552 48.54957,44.9725381 48.5156172,44.7049098 C48.3109015,43.0711789 47.3262691,42.2762829 46.5363662,41.8988072 L41.4434397,39.4492094 C41.6880999,39.1835784 41.8978086,38.9099584 42.0715673,38.6403329 L42.0655756,38.6343412 Z M40.6934813,31.3404716 C42.4510402,31.3404716 43.1900139,29.1335368 43.1900139,28.5653259 C43.1900139,27.9971151 42.740638,27.7564494 42.4760055,27.7564494 L39.1326491,27.7564494 C38.7761442,27.7564494 37.917337,28.0470458 37.917337,28.6022746 C37.917337,28.8099861 38.0731207,29.2673509 38.4086546,29.7107351 C38.9878502,30.4776699 39.4901526,31.3364771 40.6924827,31.3364771 L40.6934813,31.3404716 Z M31.9556172,31.3404716 C33.1539528,31.3404716 33.6632455,30.4816644 34.2394452,29.7147295 C34.5749792,29.2703467 34.7307628,28.8159778 34.7307628,28.6062691 C34.7307628,28.0510402 33.8719556,27.7604438 33.5154508,27.7604438 L30.1720943,27.7604438 C29.9074619,27.7604438 29.4590846,27.9981137 29.4590846,28.5693204 C29.4590846,29.1375312 30.1990569,31.344466 31.9556172,31.344466 L31.9556172,31.3404716 Z M31.0468793,33.6173093 L30.2639667,33.6173093 C30.6394452,33.7900693 30.9240499,33.9168932 31.0468793,33.9758114 L31.0468793,33.6173093 L31.0468793,33.6173093 Z M30.0083218,37.1823578 C30.0332871,37.396061 30.0942025,37.6277393 30.1890707,37.8694036 L30.0083218,37.1823578 Z" id="Shape" fill="#000000" fill-rule="nonzero"></path>
                    </g>
                </g>
            </g>
        </g>
    </g>
</svg>